<svg width="360" height="279" viewBox="0 0 360 279" fill="none" xmlns="http://www.w3.org/2000/svg">
<mask id="mask0_1_199" style="mask-type:luminance" maskUnits="userSpaceOnUse" x="-3" y="0" width="366" height="283">
<path d="M362.833 0.897087H-2.97217V282.701H362.833V0.897087Z" fill="white"/>
</mask>
<g mask="url(#mask0_1_199)">
<path d="M295.985 227.094V151.551L310.707 144.794V176.009L317.942 174.395V227.774L295.985 227.094Z" fill="#E2D4BF"/>
<path d="M310.707 227.617L332.07 227.905V155.633L310.707 144.794" fill="#FCF2D6"/>
<path d="M-1.96664 96.4746L44.3165 104.144V145.256L66.8751 142.05L106.178 141.792V212.544L109.89 246.445L219.736 263.539L278.399 203.97L279.179 138.96L448.066 137.685V329.458L-1.96664 321.229V96.4746Z" fill="#751231"/>
<path d="M279.353 138.917L285.237 140.316V211.61L279.353 205.788V138.917Z" stroke="#020203" stroke-miterlimit="10"/>
<path d="M285.299 140.331L292.028 141.93V216.226L285.299 209.709V140.331Z" stroke="#020203" stroke-miterlimit="10"/>
<path d="M96.2575 205.202L-11.8725 311.251V331.26L96.2575 213.308V205.202Z" stroke="#020203" stroke-miterlimit="10"/>
<path d="M349.35 125.832V126.435H349.051V125.817L349.132 125.821L349.35 125.832Z" stroke="#020203" stroke-miterlimit="10"/>
<path d="M96.2575 213.184L-11.8725 330.951V350.96L96.2575 221.289V213.184Z" stroke="#020203" stroke-miterlimit="10"/>
<path d="M349.131 126.435V125.821" stroke="#020203" stroke-miterlimit="10"/>
<path d="M279.332 170.938L394.041 239.492V263.953L279.332 181.624V170.938Z" stroke="#020203" stroke-miterlimit="10"/>
<path d="M279.332 160.26L394.041 215.06V239.517L279.332 170.949V160.26Z" stroke="#020203" stroke-miterlimit="10"/>
<path d="M279.426 149.621L394.041 190.624V215.085L279.426 160.318V149.621Z" stroke="#020203" stroke-miterlimit="10"/>
<path d="M394.041 166.191L279.332 138.909V192.299L394.041 288.386V166.191Z" stroke="#020203" stroke-miterlimit="10"/>
<path d="M348.833 155.44L368.51 160.118V266.999L348.833 250.52V155.44Z" stroke="#020203" stroke-miterlimit="10"/>
<path d="M319.931 148.567L332.795 151.627V237.086L319.931 226.309V148.567Z" stroke="#020203" stroke-miterlimit="10"/>
<path d="M309.104 145.993L319.818 148.541V226.214L309.104 217.24V145.993Z" stroke="#020203" stroke-miterlimit="10"/>
<path d="M299.945 143.813L309.009 145.968V217.16L299.945 209.568V143.813Z" stroke="#020203" stroke-miterlimit="10"/>
<path d="M292.097 141.948L299.865 143.794V209.499L292.097 202.993V141.948Z" stroke="#020203" stroke-miterlimit="10"/>
<path d="M580.955 162.32H377.76L279.353 138.917H375.865L580.955 162.32Z" stroke="#020203" stroke-miterlimit="10"/>
<path d="M487.536 151.66H332.934L349.35 155.564H521.75L487.536 151.66Z" stroke="#020203" stroke-miterlimit="10"/>
<path d="M459.866 148.501H319.658L333.018 151.678H487.711L459.866 148.501Z" stroke="#020203" stroke-miterlimit="10"/>
<path d="M436.914 145.881H308.645L319.727 148.52H460.012L436.914 145.881Z" stroke="#020203" stroke-miterlimit="10"/>
<path d="M417.562 143.675H299.358L308.703 145.895H437.034L417.562 143.675Z" stroke="#020203" stroke-miterlimit="10"/>
<path d="M401.029 141.788H291.427L299.409 143.685H417.664L401.029 141.788Z" stroke="#020203" stroke-miterlimit="10"/>
<path d="M386.737 140.156H284.567L291.467 141.799H401.116L386.737 140.156Z" stroke="#020203" stroke-miterlimit="10"/>
<path d="M406.162 160.169H369.031L279.652 138.949H298.211L406.162 160.169Z" stroke="#020203" stroke-miterlimit="10"/>
<path d="M443.701 160.169H406.574L298.415 138.949H316.973L443.701 160.169Z" stroke="#020203" stroke-miterlimit="10"/>
<path d="M481.245 160.169H444.113L317.181 138.949H335.739L481.245 160.169Z" stroke="#020203" stroke-miterlimit="10"/>
<path d="M518.784 160.169H481.656L335.947 138.949H354.505L518.784 160.169Z" stroke="#020203" stroke-miterlimit="10"/>
<path d="M556.327 160.169H519.196L354.709 138.949H373.268L556.327 160.169Z" stroke="#020203" stroke-miterlimit="10"/>
<path d="M391.924 87.6496V155.117L373.639 151.733L373.541 151.714L372.871 151.591L356.575 148.574H356.564L356.312 148.527L356.207 148.505L342.421 145.953L342.395 145.95H342.388L342.337 145.939H342.33L330.675 143.78L330.453 143.74L330.395 143.729L324.504 142.639V118.137L330.675 118.152L342.333 118.181L342.421 118.185L348.833 118.199V94.0939L356.207 92.9926L356.312 92.9744L372.871 90.4992L391.924 87.6496Z" fill="#751231" stroke="#020203" stroke-miterlimit="10"/>
<path d="M356.309 92.9199L372.87 90.4447V151.678L356.309 148.6V92.9199Z" stroke="#020203" stroke-miterlimit="10"/>
<path d="M356.207 92.9381V148.581L355.875 148.52L355.777 148.501L342.421 146.019V118.13L348.833 118.145V94.0394L356.207 92.9381Z" fill="#751231" stroke="#020203" stroke-miterlimit="10"/>
<path d="M342.333 118.126V146.001L341.765 145.895L341.707 145.884L330.675 143.834V118.097L342.333 118.126Z" fill="#751231" stroke="#020203" stroke-miterlimit="10"/>
<path d="M391.924 147.102L324.504 137.285V142.584L391.924 155.066V147.102Z" stroke="#020203" stroke-miterlimit="10"/>
<path d="M391.924 139.237L324.504 132.047V137.347L391.924 147.197V139.237Z" stroke="#020203" stroke-miterlimit="10"/>
<path d="M391.924 131.368L324.504 126.813V132.113L391.924 139.331V131.368Z" stroke="#020203" stroke-miterlimit="10"/>
<path d="M391.924 123.498L324.504 121.576V126.875L391.924 131.462V123.498Z" stroke="#020203" stroke-miterlimit="10"/>
<path d="M348.833 116.16V118.145L342.421 118.13L342.333 118.126L330.675 118.097L324.504 118.083V121.576V121.637L330.675 121.816L342.333 122.157H342.421L356.207 122.557L356.312 122.561L372.871 123.044L391.924 123.597V123.502V115.728V115.633L372.871 115.833L356.312 116.004L356.207 116.007L348.833 116.084" stroke="#020203" stroke-miterlimit="10"/>
<path d="M348.833 116.16L356.207 116.087L356.312 116.084L372.871 115.92L391.924 115.727V115.633V107.858V107.764L372.871 108.709L356.312 109.527L356.207 109.534L348.833 109.897V109.974V116.084" stroke="#020203" stroke-miterlimit="10"/>
<path d="M391.924 99.8985V107.858L372.871 108.793L356.312 109.607L356.207 109.61L348.833 109.974V103.711L356.207 103.061L356.312 103.05L372.871 101.585L391.924 99.8985Z" stroke="#020203" stroke-miterlimit="10"/>
<path d="M391.924 92.0294V99.993L372.871 101.672L356.312 103.13L356.207 103.137L348.833 103.788V97.525L356.207 96.5837L356.312 96.5727L372.871 94.461L391.924 92.0294Z" stroke="#020203" stroke-miterlimit="10"/>
<path d="M106.375 191.376L-1.75533 285.674V305.683L106.375 199.481V191.376Z" stroke="#020203" stroke-miterlimit="10"/>
<path d="M106.375 183.369L-16.4775 277.158V298.788L106.375 191.478V183.369Z" stroke="#020203" stroke-miterlimit="10"/>
<path d="M106.327 175.398L-16.4775 255.804V277.434L106.327 183.511V175.398Z" stroke="#020203" stroke-miterlimit="10"/>
<path d="M106.335 167.213L-2.91386 226.618V246.758L106.335 175.325V167.213Z" stroke="#020203" stroke-miterlimit="10"/>
<path d="M106.375 159.089L-1.75533 205.991V226L106.375 167.198V159.089Z" stroke="#020203" stroke-miterlimit="10"/>
<path d="M106.375 150.951L-1.75533 185.906V205.915L106.375 159.06V150.951Z" stroke="#020203" stroke-miterlimit="10"/>
<path d="M106.375 142.737L-1.75533 165.632V185.641L106.375 150.846V142.737Z" stroke="#020203" stroke-miterlimit="10"/>
<path d="M-7.82852 152.801H59.4357L71.0284 150.333H10.2308L-7.82852 152.801Z" stroke="#020203" stroke-miterlimit="10"/>
<path d="M-30.9592 155.96H44.3383L59.4175 152.758H-7.51522L-30.9592 155.96Z" stroke="#020203" stroke-miterlimit="10"/>
<path d="M-61.0301 160.067H25.0003L44.3748 155.953H-30.9045L-61.0301 160.067Z" stroke="#020203" stroke-miterlimit="10"/>
<path d="M-101.098 165.541H-0.768032L25.0476 160.056H-60.9572L-101.098 165.541Z" stroke="#020203" stroke-miterlimit="10"/>
<path d="M10.3437 150.253H70.9227L80.4606 148.232H25.1752L10.3437 150.253Z" stroke="#020203" stroke-miterlimit="10"/>
<path d="M52.9873 150.333H68.9736L104.994 142.737H94.2465L52.9873 150.333Z" stroke="#020203" stroke-miterlimit="10"/>
<path d="M-24.252 160.532H-1.11413L95.4378 142.882H84.7814L-24.252 160.532Z" stroke="#020203" stroke-miterlimit="10"/>
<path d="M25.2844 148.218H80.5298L88.523 146.524H37.7187L25.2844 148.218Z" stroke="#020203" stroke-miterlimit="10"/>
<path d="M37.7624 146.517H88.5558L95.354 145.078H48.3386L37.7624 146.517Z" stroke="#020203" stroke-miterlimit="10"/>
<path d="M48.3677 145.15H94.1043L100.072 143.9H57.5121L48.3677 145.15Z" stroke="#020203" stroke-miterlimit="10"/>
<path d="M57.5121 143.9H100.586L106.794 142.588H67.0864L57.5121 143.9Z" stroke="#020203" stroke-miterlimit="10"/>
<path d="M49.8541 154.673V226.702" stroke="#020203" stroke-miterlimit="10"/>
<path d="M59.5159 154.062V220.094" stroke="#020203" stroke-miterlimit="10"/>
<path d="M68.9189 150.849V213.399" stroke="#020203" stroke-miterlimit="10"/>
<path d="M76.5004 149.036V213.617" stroke="#020203" stroke-miterlimit="10"/>
<path d="M83.1165 147.796V213.399" stroke="#020203" stroke-miterlimit="10"/>
<path d="M88.9346 146.517V213.399" stroke="#020203" stroke-miterlimit="10"/>
<path d="M94.0934 145.357V213.399" stroke="#020203" stroke-miterlimit="10"/>
<path d="M98.6984 144.452V213.399" stroke="#020203" stroke-miterlimit="10"/>
<path d="M102.735 143.595V209.117" stroke="#020203" stroke-miterlimit="10"/>
<path d="M106.389 142.817V213.566" stroke="#020203" stroke-miterlimit="10"/>
<path d="M102.837 143.722V213.399" stroke="#020203" stroke-miterlimit="10"/>
<path d="M106.375 159.089L-1.75533 205.991V226L106.375 167.198V159.089Z" stroke="#020203" stroke-miterlimit="10"/>
<path d="M44.5278 104.685L-1.75533 97.0162V151.569L44.5278 145.35V104.685Z" stroke="#020203" stroke-miterlimit="10"/>
<path d="M-1.75533 97.0162L12.5624 99.386V149.646L-1.75533 151.569V97.0162Z" stroke="#020203" stroke-miterlimit="10"/>
<path d="M12.5879 99.3933L24.8072 101.418V148L12.5879 149.643V99.3933Z" stroke="#020203" stroke-miterlimit="10"/>
<path d="M24.829 101.421L35.387 103.17V146.579L24.829 147.996V101.421Z" stroke="#020203" stroke-miterlimit="10"/>
<path d="M35.4052 103.173L44.6152 104.7V145.339L35.4052 146.575V103.173Z" stroke="#020203" stroke-miterlimit="10"/>
<path d="M44.6152 140.516L-1.75533 145.096V152.096L44.6152 145.732V140.516Z" stroke="#020203" stroke-miterlimit="10"/>
<path d="M44.6152 135.289L-1.75533 138.081V145.078L44.6152 140.505V135.289Z" stroke="#020203" stroke-miterlimit="10"/>
<path d="M44.6152 130.063L-1.75533 131.062V138.063L44.6152 135.278V130.063Z" stroke="#020203" stroke-miterlimit="10"/>
<path d="M44.6152 124.836L-1.75533 124.047V131.048L44.6152 130.052V124.836Z" stroke="#020203" stroke-miterlimit="10"/>
<path d="M44.6152 119.609L-1.75533 117.032V124.029L44.6152 124.825V119.609Z" stroke="#020203" stroke-miterlimit="10"/>
<path d="M44.6152 114.383L-1.75533 110.014V117.014L44.6152 119.598V114.383Z" stroke="#020203" stroke-miterlimit="10"/>
<path d="M44.6152 109.16L-1.75533 102.999V109.996L44.6152 114.372V109.16Z" stroke="#020203" stroke-miterlimit="10"/>
<path d="M37.3179 243.341V177.608V169.917V165.926V165.919V161.932V161.924V157.933V157.926" stroke="#020203" stroke-miterlimit="10"/>
<path d="M22.8872 250.901V190.5V182.097V173.988V169.786V169.775V165.573V165.563V161.357V161.35V160.143" stroke="#020203" stroke-miterlimit="10"/>
<path d="M5.85532 163.865V260.351" stroke="#020203" stroke-miterlimit="10"/>
<path d="M300.287 209.829H68.9882L77.6371 203.552H292.4L300.287 209.829Z" fill="#751231" stroke="#020203" stroke-width="2" stroke-miterlimit="10"/>
<path d="M309.402 217.462H58.9949L69.0756 209.753H300.211L309.402 217.462Z" fill="#751231" stroke="#020203" stroke-width="2" stroke-miterlimit="10"/>
<path d="M320.157 226.48H47.2019L59.0969 217.382H309.311L320.157 226.48Z" fill="#751231" stroke="#020203" stroke-width="2" stroke-miterlimit="10"/>
<path d="M333.043 237.282H33.0772L47.3221 226.389H320.048L333.043 237.282Z" fill="#751231" stroke="#020203" stroke-width="2" stroke-miterlimit="10"/>
<path d="M348.756 250.461H15.8486L33.223 237.173H332.908L348.756 250.461Z" fill="#751231" stroke="#020203" stroke-width="2" stroke-miterlimit="10"/>
<path d="M368.349 266.89H-5.63168L16.0271 250.323H348.592L368.349 266.89Z" fill="#751231" stroke="#020203" stroke-width="2" stroke-miterlimit="10"/>
<path d="M393.458 287.942H-33.1597L-5.40581 266.716H368.142L393.458 287.942Z" fill="#751231" stroke="#020203" stroke-width="2" stroke-miterlimit="10"/>
<path d="M426.141 315.37H-69.0196L76.8939 203.77H293.066L426.141 315.37Z" stroke="#020203" stroke-width="2" stroke-miterlimit="10"/>
<path d="M-39.5352 315.37H-54.6326L83.1748 203.77H89.7653L-39.5352 315.37Z" stroke="#020203" stroke-width="2" stroke-miterlimit="10"/>
<path d="M-11.4717 315.37H-26.5655L95.4268 203.77H102.017L-11.4717 315.37Z" stroke="#020203" stroke-width="2" stroke-miterlimit="10"/>
<path d="M3.62566 315.37H-11.4717L102.017 203.77H108.608L3.62566 315.37Z" stroke="#020203" stroke-width="2" stroke-miterlimit="10"/>
<path d="M18.723 315.37H3.62566L108.608 203.77H115.198L18.723 315.37Z" stroke="#020203" stroke-width="2" stroke-miterlimit="10"/>
<path d="M33.8205 315.37H18.7231L115.198 203.77H121.793L33.8205 315.37Z" stroke="#020203" stroke-width="2" stroke-miterlimit="10"/>
<path d="M48.9178 315.37H33.8204L121.793 203.77H128.383L48.9178 315.37Z" stroke="#020203" stroke-width="2" stroke-miterlimit="10"/>
<path d="M64.0152 315.37H48.9178L128.383 203.77H134.974L64.0152 315.37Z" stroke="#020203" stroke-width="2" stroke-miterlimit="10"/>
<path d="M79.1126 315.37H64.0152L134.974 203.77H141.564L79.1126 315.37Z" stroke="#020203" stroke-width="2" stroke-miterlimit="10"/>
<path d="M94.2064 315.37H79.1126L141.564 203.77H148.155L94.2064 315.37Z" stroke="#020203" stroke-width="2" stroke-miterlimit="10"/>
<path d="M109.304 315.37H94.2063L148.155 203.77H154.745L109.304 315.37Z" stroke="#020203" stroke-width="2" stroke-miterlimit="10"/>
<path d="M124.401 315.37H109.304L154.745 203.77H161.336L124.401 315.37Z" stroke="#020203" stroke-width="2" stroke-miterlimit="10"/>
<path d="M139.499 315.37H124.401L161.336 203.77H167.926L139.499 315.37Z" stroke="#020203" stroke-width="2" stroke-miterlimit="10"/>
<path d="M154.596 315.37H139.499L167.926 203.77H174.517L154.596 315.37Z" stroke="#020203" stroke-width="2" stroke-miterlimit="10"/>
<path d="M169.693 315.37H154.596L174.517 203.77H181.107L169.693 315.37Z" stroke="#020203" stroke-width="2" stroke-miterlimit="10"/>
<path d="M184.791 315.37H169.693L181.107 203.77H187.698L184.791 315.37Z" stroke="#020203" stroke-width="2" stroke-miterlimit="10"/>
<path d="M199.888 315.37H184.791L187.698 203.77H194.292L199.888 315.37Z" stroke="#020203" stroke-width="2" stroke-miterlimit="10"/>
<path d="M214.982 315.37H199.888L194.292 203.77H200.883L214.982 315.37Z" stroke="#020203" stroke-width="2" stroke-miterlimit="10"/>
<path d="M230.079 315.37H214.982L200.883 203.77H207.473L230.079 315.37Z" stroke="#020203" stroke-width="2" stroke-miterlimit="10"/>
<path d="M245.177 315.37H230.079L207.473 203.77H214.064L245.177 315.37Z" stroke="#020203" stroke-width="2" stroke-miterlimit="10"/>
<path d="M260.274 315.37H245.177L214.064 203.77H220.654L260.274 315.37Z" stroke="#020203" stroke-width="2" stroke-miterlimit="10"/>
<path d="M275.371 315.37H260.274L220.654 203.77H227.245L275.371 315.37Z" stroke="#020203" stroke-width="2" stroke-miterlimit="10"/>
<path d="M290.469 315.37H275.371L227.245 203.77H233.835L290.469 315.37Z" stroke="#020203" stroke-width="2" stroke-miterlimit="10"/>
<path d="M305.566 315.37H290.469L233.835 203.77H240.426L305.566 315.37Z" stroke="#020203" stroke-width="2" stroke-miterlimit="10"/>
<path d="M320.66 315.37H305.566L240.426 203.77H247.016L320.66 315.37Z" stroke="#020203" stroke-width="2" stroke-miterlimit="10"/>
<path d="M335.757 315.37H320.66L247.016 203.77H253.607L335.757 315.37Z" stroke="#020203" stroke-width="2" stroke-miterlimit="10"/>
<path d="M350.855 315.37H335.757L253.607 203.77H260.198L350.855 315.37Z" stroke="#020203" stroke-width="2" stroke-miterlimit="10"/>
<path d="M365.952 315.37H350.855L260.198 203.77H266.792L365.952 315.37Z" stroke="#020203" stroke-width="2" stroke-miterlimit="10"/>
<path d="M381.049 315.37H365.952L266.792 203.77H273.382L381.049 315.37Z" stroke="#020203" stroke-width="2" stroke-miterlimit="10"/>
<path d="M396.147 315.37H381.049L273.382 203.77H279.973L396.147 315.37Z" stroke="#020203" stroke-width="2" stroke-miterlimit="10"/>
<path d="M411.244 315.37H396.147L279.973 203.77H286.563L411.244 315.37Z" stroke="#020203" stroke-width="2" stroke-miterlimit="10"/>
<path d="M426.342 315.37H411.244L286.563 203.77H293.154L426.342 315.37Z" stroke="#020203" stroke-width="2" stroke-miterlimit="10"/>
</g>
</svg>
