<svg width="442" height="247" viewBox="0 0 442 247" fill="none" xmlns="http://www.w3.org/2000/svg">
<path d="M59.541 103.884C60.0474 92.3621 65.0501 82.9446 76.5747 82.6681C79.8421 82.5659 83.0915 83.1903 86.0889 84.4963C86.5246 84.6897 87.0019 84.7703 87.4768 84.7306C87.9518 84.6908 88.4091 84.532 88.8066 84.2687C89.2041 84.0055 89.5289 83.6462 89.7513 83.2242C89.9736 82.8022 90.0863 82.3309 90.0788 81.8538L89.864 58.3792C89.8579 57.5541 90.0142 56.7358 90.3241 55.9711C90.6339 55.2065 91.0911 54.5104 91.6697 53.9226C92.2482 53.3349 92.9367 52.8669 93.6959 52.5456C94.4551 52.2242 95.2701 52.0557 96.0943 52.0497L196.086 51.8346C196.599 51.8304 197.102 51.9642 197.545 52.222C197.988 52.4798 198.353 52.8521 198.603 53.2998C198.852 53.7476 198.977 54.2543 198.963 54.7669C198.95 55.2795 198.799 55.779 198.526 56.2131C196.16 59.8555 194.845 64.0816 194.726 68.425C194.608 72.7685 195.69 77.0603 197.853 80.8268C200.017 84.5934 203.178 87.6883 206.988 89.7699C210.798 91.8515 215.108 92.839 219.442 92.6233C225.291 92.2818 230.807 89.7888 234.931 85.6231C239.055 81.4575 241.497 75.913 241.786 70.0551C242.003 65.0326 240.605 60.0728 237.796 55.9058C237.521 55.4748 237.367 54.9779 237.35 54.467C237.332 53.9561 237.452 53.4499 237.697 53.0011C237.941 52.5524 238.301 52.1775 238.74 51.9156C239.178 51.6536 239.679 51.5143 240.19 51.512L342.361 51.2815C344.023 51.2775 345.619 51.9334 346.798 53.1056C347.977 54.2778 348.644 55.8705 348.653 57.5343L348.883 81.5158C348.891 81.9925 349.019 82.4593 349.254 82.874C349.489 83.2886 349.824 83.6378 350.228 83.8897C350.632 84.1417 351.093 84.2884 351.568 84.3165C352.044 84.3446 352.518 84.2533 352.949 84.0507C356.324 82.3358 360.08 81.5126 363.861 81.6593C367.642 81.806 371.323 82.9178 374.555 84.889C377.787 86.8602 380.461 89.6255 382.325 92.9225C384.189 96.2194 385.181 99.9385 385.206 103.727C385.231 107.515 384.288 111.247 382.467 114.568C380.647 117.889 378.008 120.69 374.803 122.703C371.598 124.717 367.931 125.877 364.152 126.073C360.373 126.27 356.607 125.496 353.21 123.825C352.774 123.617 352.292 123.524 351.809 123.553C351.327 123.582 350.86 123.734 350.452 123.993C350.044 124.253 349.708 124.612 349.477 125.036C349.245 125.461 349.125 125.938 349.128 126.422L349.343 150.403C349.351 151.228 349.197 152.046 348.889 152.81C348.58 153.575 348.125 154.271 347.547 154.859C346.97 155.447 346.283 155.915 345.524 156.237C344.766 156.558 343.952 156.727 343.128 156.733L239.33 156.963C238.815 156.966 238.31 157.108 237.869 157.374C237.428 157.641 237.067 158.022 236.825 158.477C236.583 158.932 236.468 159.445 236.493 159.96C236.518 160.475 236.682 160.974 236.967 161.403C239.592 165.273 240.92 169.879 240.757 174.554C240.551 180.357 238.085 185.849 233.886 189.855C229.688 193.861 224.09 196.063 218.29 195.991C212.49 195.919 206.949 193.578 202.851 189.468C198.754 185.359 196.425 179.807 196.363 174.001C196.331 169.636 197.591 165.359 199.984 161.71C200.268 161.278 200.428 160.776 200.449 160.26C200.47 159.743 200.351 159.23 200.104 158.776C199.856 158.321 199.49 157.943 199.045 157.681C198.6 157.418 198.092 157.282 197.575 157.286L96.8616 157.516C95.1996 157.525 93.6023 156.872 92.4199 155.703C91.2375 154.534 90.5667 152.943 90.5545 151.279L90.3397 127.712C90.3363 127.236 90.214 126.768 89.9839 126.351C89.7537 125.934 89.4231 125.581 89.022 125.324C88.6209 125.068 88.1621 124.916 87.6874 124.882C87.2126 124.848 86.737 124.934 86.3038 125.131C83.4475 126.443 80.3462 127.134 77.2038 127.159C64.6204 127.205 58.9732 116.758 59.541 103.884Z" fill="#C82342" stroke="#5D0F2A" stroke-width="4" stroke-miterlimit="10"/>
<path d="M346.443 125.638L346.658 149.62C346.658 153.092 346.965 154.398 343.512 154.413L239.714 154.644C237.443 154.644 236.077 158.73 237.351 160.604C239.981 164.479 241.313 169.089 241.156 173.77C241.119 176.69 240.508 179.573 239.358 182.256C238.207 184.939 236.54 187.368 234.452 189.406C232.364 191.444 229.895 193.05 227.187 194.133C224.478 195.216 221.583 195.754 218.667 195.716C215.751 195.679 212.871 195.067 210.192 193.915C207.512 192.764 205.085 191.095 203.049 189.004C198.938 184.782 196.671 179.098 196.746 173.202C196.72 168.835 197.985 164.559 200.383 160.912C201.626 158.991 200.245 154.935 197.974 154.951L97.2606 155.166C93.7925 155.166 92.4881 153.921 92.4727 150.465L92.2579 139.188C92.2579 139.188 206.214 145.042 346.443 125.638Z" fill="#7D142E"/>
<path d="M117.977 59.7773C112.575 60.5761 106.898 61.8052 102.938 65.5845C97.4754 70.7925 96.8769 79.1807 96.6774 86.7239C98.212 88.2602 100.913 87.6303 102.432 86.094C103.74 84.3957 104.775 82.5039 105.501 80.4865C109.644 72.1137 119.189 67.7046 128.443 66.4602C136.269 65.4001 144.126 66.1836 151.968 66.199C155.666 66.199 167.82 66.5062 162.71 60.8527C159.088 56.889 148.177 57.9798 143.604 57.9491C135.028 57.8965 126.46 58.5077 117.977 59.7773Z" fill="white"/>
<path d="M138.565 143L153.442 100.82H160.453L175.387 143H169.459L165.925 132.911H148.027L144.493 143H138.565ZM149.737 127.895H164.215L156.976 107.204L149.737 127.895ZM182.531 143V100.82H197.579C200.809 100.82 203.488 101.485 205.616 102.815C207.782 104.145 209.397 105.874 210.461 108.002C211.563 110.092 212.114 112.277 212.114 114.557C212.114 116.875 211.563 119.098 210.461 121.226C209.397 123.316 207.782 125.045 205.616 126.413C203.488 127.743 200.809 128.408 197.579 128.408H188.117V143H182.531ZM197.579 105.722H188.117V123.506H197.579C199.593 123.506 201.265 123.069 202.595 122.195C203.925 121.321 204.913 120.219 205.559 118.889C206.243 117.521 206.585 116.096 206.585 114.614C206.585 113.132 206.243 111.707 205.559 110.339C204.913 108.971 203.925 107.869 202.595 107.033C201.265 106.159 199.593 105.722 197.579 105.722ZM219.213 143V100.82H234.261C237.491 100.82 240.17 101.485 242.298 102.815C244.464 104.145 246.079 105.874 247.143 108.002C248.245 110.092 248.796 112.277 248.796 114.557C248.796 116.875 248.245 119.098 247.143 121.226C246.079 123.316 244.464 125.045 242.298 126.413C240.17 127.743 237.491 128.408 234.261 128.408H224.799V143H219.213ZM234.261 105.722H224.799V123.506H234.261C236.275 123.506 237.947 123.069 239.277 122.195C240.607 121.321 241.595 120.219 242.241 118.889C242.925 117.521 243.267 116.096 243.267 114.614C243.267 113.132 242.925 111.707 242.241 110.339C241.595 108.971 240.607 107.869 239.277 107.033C237.947 106.159 236.275 105.722 234.261 105.722ZM255.896 143V100.82H261.482V138.098H283.199V143H255.896ZM294.521 143V128.009L279.758 100.82H285.857L297.314 122.309L308.714 100.82H314.813L300.05 128.009V143H294.521Z" fill="white"/>
<path d="M138.565 143L137.622 142.667L137.152 144H138.565V143ZM153.442 100.82V99.82H152.734L152.499 100.487L153.442 100.82ZM160.453 100.82L161.396 100.486L161.16 99.82H160.453V100.82ZM175.387 143V144H176.802L176.33 142.666L175.387 143ZM169.459 143L168.515 143.331L168.75 144H169.459V143ZM165.925 132.911L166.869 132.58L166.634 131.911H165.925V132.911ZM148.027 132.911V131.911H147.318L147.083 132.58L148.027 132.911ZM144.493 143V144H145.202L145.437 143.331L144.493 143ZM149.737 127.895L148.793 127.565L148.328 128.895H149.737V127.895ZM164.215 127.895V128.895H165.624L165.159 127.565L164.215 127.895ZM156.976 107.204L157.92 106.874L156.976 104.176L156.032 106.874L156.976 107.204ZM139.508 143.333L154.385 101.153L152.499 100.487L137.622 142.667L139.508 143.333ZM153.442 101.82H160.453V99.82H153.442V101.82ZM159.51 101.154L174.444 143.334L176.33 142.666L161.396 100.486L159.51 101.154ZM175.387 142H169.459V144H175.387V142ZM170.403 142.669L166.869 132.58L164.981 133.242L168.515 143.331L170.403 142.669ZM165.925 131.911H148.027V133.911H165.925V131.911ZM147.083 132.58L143.549 142.669L145.437 143.331L148.971 133.242L147.083 132.58ZM144.493 142H138.565V144H144.493V142ZM149.737 128.895H164.215V126.895H149.737V128.895ZM165.159 127.565L157.92 106.874L156.032 107.534L163.271 128.225L165.159 127.565ZM156.032 106.874L148.793 127.565L150.681 128.225L157.92 107.534L156.032 106.874ZM182.531 143H181.531V144H182.531V143ZM182.531 100.82V99.82H181.531V100.82H182.531ZM205.616 102.815L205.086 103.663L205.092 103.667L205.616 102.815ZM210.461 108.002L209.566 108.449L209.571 108.459L209.576 108.468L210.461 108.002ZM210.461 121.226L209.573 120.766L209.57 120.772L210.461 121.226ZM205.616 126.413L206.146 127.261L206.15 127.258L205.616 126.413ZM188.117 128.408V127.408H187.117V128.408H188.117ZM188.117 143V144H189.117V143H188.117ZM188.117 105.722V104.722H187.117V105.722H188.117ZM188.117 123.506H187.117V124.506H188.117V123.506ZM205.559 118.889L204.664 118.442L204.659 118.452L205.559 118.889ZM205.559 110.339L204.654 110.766L204.659 110.776L204.664 110.786L205.559 110.339ZM202.595 107.033L202.046 107.869L202.054 107.874L202.063 107.88L202.595 107.033ZM183.531 143V100.82H181.531V143H183.531ZM182.531 101.82H197.579V99.82H182.531V101.82ZM197.579 101.82C200.674 101.82 203.156 102.457 205.086 103.663L206.146 101.967C203.819 100.513 200.943 99.82 197.579 99.82V101.82ZM205.092 103.667C207.111 104.906 208.592 106.5 209.566 108.449L211.355 107.555C210.202 105.248 208.453 103.384 206.139 101.963L205.092 103.667ZM209.576 108.468C210.605 110.42 211.114 112.446 211.114 114.557H213.114C213.114 112.108 212.52 109.764 211.345 107.536L209.576 108.468ZM211.114 114.557C211.114 116.709 210.604 118.775 209.573 120.766L211.349 121.686C212.522 119.421 213.114 117.041 213.114 114.557H211.114ZM209.57 120.772C208.595 122.687 207.11 124.286 205.082 125.568L206.15 127.258C208.453 125.804 210.199 123.945 211.352 121.68L209.57 120.772ZM205.086 125.565C203.156 126.771 200.674 127.408 197.579 127.408V129.408C200.943 129.408 203.819 128.715 206.146 127.261L205.086 125.565ZM197.579 127.408H188.117V129.408H197.579V127.408ZM187.117 128.408V143H189.117V128.408H187.117ZM188.117 142H182.531V144H188.117V142ZM197.579 104.722H188.117V106.722H197.579V104.722ZM187.117 105.722V123.506H189.117V105.722H187.117ZM188.117 124.506H197.579V122.506H188.117V124.506ZM197.579 124.506C199.736 124.506 201.612 124.037 203.144 123.031L202.046 121.359C200.917 122.101 199.449 122.506 197.579 122.506V124.506ZM203.144 123.031C204.613 122.066 205.727 120.83 206.458 119.326L204.659 118.452C204.098 119.608 203.237 120.576 202.046 121.359L203.144 123.031ZM206.453 119.336C207.204 117.834 207.585 116.256 207.585 114.614H205.585C205.585 115.936 205.281 117.208 204.664 118.442L206.453 119.336ZM207.585 114.614C207.585 112.972 207.204 111.394 206.453 109.892L204.664 110.786C205.281 112.02 205.585 113.292 205.585 114.614H207.585ZM206.463 109.912C205.732 108.365 204.612 107.12 203.127 106.186L202.063 107.88C203.238 108.618 204.093 109.577 204.654 110.766L206.463 109.912ZM203.144 106.197C201.612 105.191 199.736 104.722 197.579 104.722V106.722C199.449 106.722 200.917 107.127 202.046 107.869L203.144 106.197ZM219.213 143H218.213V144H219.213V143ZM219.213 100.82V99.82H218.213V100.82H219.213ZM242.298 102.815L241.768 103.663L241.775 103.667L242.298 102.815ZM247.143 108.002L246.249 108.449L246.254 108.459L246.259 108.468L247.143 108.002ZM247.143 121.226L246.255 120.766L246.252 120.772L247.143 121.226ZM242.298 126.413L242.828 127.261L242.832 127.258L242.298 126.413ZM224.799 128.408V127.408H223.799V128.408H224.799ZM224.799 143V144H225.799V143H224.799ZM224.799 105.722V104.722H223.799V105.722H224.799ZM224.799 123.506H223.799V124.506H224.799V123.506ZM242.241 118.889L241.347 118.442L241.342 118.452L242.241 118.889ZM242.241 110.339L241.337 110.766L241.342 110.776L241.347 110.786L242.241 110.339ZM239.277 107.033L238.728 107.869L238.737 107.874L238.745 107.88L239.277 107.033ZM220.213 143V100.82H218.213V143H220.213ZM219.213 101.82H234.261V99.82H219.213V101.82ZM234.261 101.82C237.357 101.82 239.839 102.457 241.768 103.663L242.828 101.967C240.502 100.513 237.626 99.82 234.261 99.82V101.82ZM241.775 103.667C243.793 104.906 245.274 106.5 246.249 108.449L248.038 107.555C246.884 105.248 245.135 103.384 242.822 101.963L241.775 103.667ZM246.259 108.468C247.288 110.42 247.796 112.446 247.796 114.557H249.796C249.796 112.108 249.203 109.764 248.028 107.536L246.259 108.468ZM247.796 114.557C247.796 116.709 247.286 118.775 246.255 120.766L248.031 121.686C249.204 119.421 249.796 117.041 249.796 114.557H247.796ZM246.252 120.772C245.277 122.687 243.793 124.286 241.764 125.568L242.832 127.258C245.136 125.804 246.881 123.945 248.034 121.68L246.252 120.772ZM241.768 125.565C239.839 126.771 237.357 127.408 234.261 127.408V129.408C237.626 129.408 240.502 128.715 242.828 127.261L241.768 125.565ZM234.261 127.408H224.799V129.408H234.261V127.408ZM223.799 128.408V143H225.799V128.408H223.799ZM224.799 142H219.213V144H224.799V142ZM234.261 104.722H224.799V106.722H234.261V104.722ZM223.799 105.722V123.506H225.799V105.722H223.799ZM224.799 124.506H234.261V122.506H224.799V124.506ZM234.261 124.506C236.419 124.506 238.295 124.037 239.826 123.031L238.728 121.359C237.6 122.101 236.132 122.506 234.261 122.506V124.506ZM239.826 123.031C241.295 122.066 242.41 120.83 243.141 119.326L241.342 118.452C240.781 119.608 239.919 120.576 238.728 121.359L239.826 123.031ZM243.136 119.336C243.887 117.834 244.267 116.256 244.267 114.614H242.267C242.267 115.936 241.964 117.208 241.347 118.442L243.136 119.336ZM244.267 114.614C244.267 112.972 243.887 111.394 243.136 109.892L241.347 110.786C241.964 112.02 242.267 113.292 242.267 114.614H244.267ZM243.146 109.912C242.415 108.365 241.294 107.12 239.809 106.186L238.745 107.88C239.92 108.618 240.776 109.577 241.337 110.766L243.146 109.912ZM239.826 106.197C238.295 105.191 236.419 104.722 234.261 104.722V106.722C236.132 106.722 237.6 107.127 238.728 107.869L239.826 106.197ZM255.896 143H254.896V144H255.896V143ZM255.896 100.82V99.82H254.896V100.82H255.896ZM261.482 100.82H262.482V99.82H261.482V100.82ZM261.482 138.098H260.482V139.098H261.482V138.098ZM283.199 138.098H284.199V137.098H283.199V138.098ZM283.199 143V144H284.199V143H283.199ZM256.896 143V100.82H254.896V143H256.896ZM255.896 101.82H261.482V99.82H255.896V101.82ZM260.482 100.82V138.098H262.482V100.82H260.482ZM261.482 139.098H283.199V137.098H261.482V139.098ZM282.199 138.098V143H284.199V138.098H282.199ZM283.199 142H255.896V144H283.199V142ZM294.521 143H293.521V144H294.521V143ZM294.521 128.009H295.521V127.755L295.4 127.532L294.521 128.009ZM279.758 100.82V99.82H278.077L278.879 101.297L279.758 100.82ZM285.857 100.82L286.739 100.35L286.457 99.82H285.857V100.82ZM297.314 122.309L296.432 122.779L297.316 124.439L298.197 122.778L297.314 122.309ZM308.714 100.82V99.82H308.113L307.831 100.351L308.714 100.82ZM314.813 100.82L315.692 101.297L316.494 99.82H314.813V100.82ZM300.05 128.009L299.171 127.532L299.05 127.755V128.009H300.05ZM300.05 143V144H301.05V143H300.05ZM295.521 143V128.009H293.521V143H295.521ZM295.4 127.532L280.637 100.343L278.879 101.297L293.642 128.486L295.4 127.532ZM279.758 101.82H285.857V99.82H279.758V101.82ZM284.975 101.29L296.432 122.779L298.196 121.839L286.739 100.35L284.975 101.29ZM298.197 122.778L309.597 101.289L307.831 100.351L296.431 121.84L298.197 122.778ZM308.714 101.82H314.813V99.82H308.714V101.82ZM313.934 100.343L299.171 127.532L300.929 128.486L315.692 101.297L313.934 100.343ZM299.05 128.009V143H301.05V128.009H299.05ZM300.05 142H294.521V144H300.05V142Z" fill="white"/>
</svg>
