<svg width="368" height="130" viewBox="0 0 368 130" fill="none" xmlns="http://www.w3.org/2000/svg">
<path d="M62.6274 86.9789C62.6196 87.7248 62.5674 88.4695 62.4712 89.2091C62.423 89.7027 62.3182 90.1891 62.1589 90.6588C62.0671 90.9813 61.8806 91.2688 61.6234 91.484C61.4184 91.6592 61.1568 91.7543 60.8871 91.7516H35.6978C35.2348 91.7904 34.7689 91.7239 34.3352 91.5572C33.9015 91.3904 33.5112 91.1277 33.1935 90.7887C32.8759 90.4497 32.6391 90.0432 32.5009 89.5997C32.3628 89.1562 32.3268 88.6872 32.3958 88.2278V38.1369C32.3957 37.8542 32.4899 37.5795 32.6635 37.3563C32.9106 37.0936 33.2282 36.9078 33.5783 36.8211C34.1364 36.6406 34.7124 36.521 35.2962 36.4642C36.0325 36.4642 36.925 36.3527 37.9959 36.3527C39.0668 36.3527 40.0262 36.3527 40.7179 36.4642C41.3017 36.521 41.8777 36.6406 42.4358 36.8211C42.7859 36.9078 43.1035 37.0936 43.3506 37.3563C43.5242 37.5795 43.6184 37.8542 43.6183 38.1369V82.5184H60.9541C61.2173 82.5104 61.4759 82.5887 61.6903 82.7415C61.9422 82.9429 62.1286 83.2146 62.2258 83.5221C62.35 83.9213 62.4322 84.3324 62.4712 84.7487C62.5674 85.4883 62.6196 86.2331 62.6274 86.9789Z" fill="#C82342" stroke="#5D0F2A" stroke-width="0.66" stroke-miterlimit="10"/>
<path d="M103.658 70.1184C103.745 71.1601 103.434 72.1963 102.787 73.0177C102.476 73.3367 102.1 73.5854 101.684 73.7469C101.268 73.9085 100.823 73.9792 100.378 73.9544H77.2635C77.2447 75.4611 77.44 76.9629 77.8435 78.4148C78.1891 79.6553 78.815 80.7998 79.6731 81.7602C80.5501 82.7599 81.6617 83.5262 82.9082 83.9904C84.4376 84.5072 86.0466 84.7489 87.6605 84.7041C89.3129 84.7226 90.9635 84.5883 92.5912 84.3026C93.836 84.0835 95.0656 83.7856 96.2726 83.4105C97.3212 83.0983 98.169 82.7861 98.8606 82.5184C99.3821 82.2856 99.9415 82.1496 100.512 82.117C100.738 82.1048 100.963 82.159 101.159 82.2731C101.349 82.397 101.497 82.5759 101.583 82.7861C101.709 83.1377 101.784 83.5058 101.806 83.8789C101.806 84.3472 101.806 84.9494 101.806 85.6408C101.806 86.3321 101.806 86.8005 101.806 87.2465C101.806 87.6926 101.806 88.0494 101.806 88.3616C101.75 88.6394 101.66 88.9091 101.538 89.1645C101.411 89.3807 101.262 89.5826 101.092 89.7667C100.634 90.1217 100.122 90.4003 99.5746 90.5919C98.5505 90.9928 97.4992 91.3207 96.4287 91.5732C94.9581 91.9433 93.4685 92.2337 91.9665 92.443C90.2139 92.6804 88.4474 92.7996 86.6788 92.7998C83.6549 92.8583 80.6414 92.429 77.7543 91.5286C75.3409 90.7136 73.1597 89.3289 71.3956 87.4919C69.6299 85.6335 68.3234 83.3881 67.5804 80.935C66.6999 77.9227 66.2787 74.795 66.331 71.6572C66.2979 68.5346 66.7572 65.4262 67.692 62.4464C68.5036 59.9789 69.8093 57.7025 71.5295 55.7557C73.192 53.8133 75.2853 52.286 77.6427 51.2952C82.8844 49.363 88.6436 49.363 93.8853 51.2952C96.0196 52.1392 97.9234 53.4767 99.4407 55.1981C100.909 56.8874 101.997 58.8726 102.631 61.019C103.318 63.4265 103.656 65.92 103.635 68.4234L103.658 70.1184ZM93.2829 67.063C93.5123 64.5687 92.874 62.0717 91.4757 59.9931C90.7619 59.1115 89.8453 58.4156 88.804 57.9651C87.7627 57.5146 86.6278 57.3228 85.4963 57.4061C84.2641 57.3841 83.0432 57.6434 81.9265 58.1643C80.9505 58.6528 80.0966 59.354 79.4276 60.2162C78.7358 61.1344 78.2144 62.1693 77.8882 63.2716C77.5263 64.4976 77.3165 65.7635 77.2635 67.0407L93.2829 67.063Z" fill="#C82342" stroke="#5D0F2A" stroke-width="0.66" stroke-miterlimit="10"/>
<path d="M147.008 52.2096C147.008 52.3657 147.008 52.5219 147.008 52.7226C147.008 52.9233 147.008 53.1463 147.008 53.3917C147.008 53.637 147.008 53.9046 146.83 54.2168C146.651 54.5291 146.673 54.8859 146.562 55.2873L135.027 89.6106C134.914 90.035 134.725 90.4355 134.469 90.7926C134.145 91.1373 133.726 91.378 133.264 91.4839C132.537 91.6876 131.788 91.8073 131.033 91.8408C130.096 91.8408 128.802 91.8408 127.307 91.8408C125.813 91.8408 124.585 91.8408 123.626 91.8408C122.871 91.7925 122.123 91.6655 121.395 91.4616C120.946 91.3565 120.541 91.115 120.235 90.7703C119.963 90.4366 119.765 90.0488 119.655 89.6329L108.209 55.2873L107.807 53.7485C107.73 53.4259 107.678 53.0978 107.651 52.7672C107.641 52.5815 107.641 52.3953 107.651 52.2096C107.643 51.9465 107.722 51.688 107.874 51.4737C108.09 51.2166 108.377 51.0301 108.7 50.9384C109.236 50.773 109.791 50.6756 110.351 50.6485C111.043 50.6485 111.913 50.6485 112.961 50.6485C114.01 50.6485 115.059 50.6485 115.773 50.6485C116.346 50.6874 116.914 50.7845 117.468 50.9384C117.809 51.0292 118.113 51.2241 118.338 51.496C118.515 51.7674 118.657 52.0595 118.762 52.3657L127.374 80.2882L127.62 81.3364L127.887 80.2882L136.41 52.4104C136.47 52.0917 136.608 51.7929 136.812 51.5406C137.037 51.2687 137.341 51.0738 137.682 50.983C138.198 50.8298 138.729 50.7326 139.266 50.6931C139.935 50.6931 140.806 50.6931 141.899 50.6931C142.992 50.6931 143.795 50.6931 144.465 50.6931C144.996 50.7191 145.521 50.8166 146.026 50.983C146.331 51.0735 146.598 51.2616 146.785 51.5183C146.921 51.7242 146.998 51.9632 147.008 52.2096Z" fill="#C82342" stroke="#5D0F2A" stroke-width="0.66" stroke-miterlimit="10"/>
<path d="M187.57 70.1184C187.658 71.1601 187.347 72.1963 186.7 73.0177C186.388 73.3367 186.012 73.5853 185.596 73.7469C185.181 73.9085 184.735 73.9792 184.29 73.9543H161.176C161.157 75.4611 161.352 76.9629 161.756 78.4148C162.092 79.659 162.719 80.8055 163.585 81.7601C164.458 82.7649 165.571 83.5322 166.82 83.9904C168.343 84.5055 169.944 84.7472 171.55 84.704C173.21 84.722 174.868 84.5876 176.503 84.3026C177.747 84.0783 178.976 83.7804 180.185 83.4105C181.211 83.0983 182.081 82.7861 182.751 82.5184C183.281 82.2876 183.847 82.1517 184.424 82.117C184.643 82.1051 184.861 82.1595 185.049 82.2731C185.244 82.3909 185.394 82.5719 185.473 82.786C185.608 83.1362 185.691 83.5045 185.718 83.8789C185.718 84.3472 185.718 84.9494 185.718 85.6407C185.718 86.3321 185.718 86.8005 185.718 87.2465C185.704 87.6212 185.659 87.9941 185.584 88.3616C185.546 88.6407 185.463 88.9119 185.339 89.1645C185.212 89.3807 185.062 89.5826 184.892 89.7667C184.431 90.1167 183.92 90.3949 183.375 90.5918C182.351 90.9928 181.3 91.3207 180.229 91.5732C178.759 91.9424 177.269 92.2327 175.767 92.4429C174.022 92.6804 172.263 92.7996 170.502 92.7998C167.478 92.8598 164.464 92.4306 161.577 91.5285C159.148 90.7699 156.946 89.4185 155.169 87.5963C153.393 85.7741 152.099 83.5384 151.403 81.0911C150.503 78.0827 150.074 74.953 150.132 71.8133C150.141 68.6252 150.676 65.4604 151.716 62.4464C152.478 59.9858 153.739 57.7084 155.419 55.7557C157.086 53.8181 159.178 52.2916 161.533 51.2952C166.782 49.3633 172.548 49.3633 177.798 51.2952C179.925 52.1509 181.827 53.4866 183.353 55.1981C184.837 56.9024 185.926 58.9128 186.543 61.0859C187.249 63.49 187.595 65.9851 187.57 68.4903V70.1184ZM177.173 67.0629C177.402 64.5687 176.764 62.0716 175.366 59.9931C174.653 59.11 173.737 58.4131 172.695 57.9625C171.653 57.5118 170.518 57.3209 169.386 57.4061C168.161 57.3835 166.947 57.6429 165.839 58.1643C164.856 58.6519 163.995 59.353 163.318 60.2161C162.624 61.1302 162.109 62.1668 161.8 63.2716C161.429 64.4953 161.218 65.7624 161.176 67.0406L177.173 67.0629Z" fill="#C82342" stroke="#5D0F2A" stroke-width="0.66" stroke-miterlimit="10"/>
<path d="M207.114 90.2127C207.121 90.4831 207.026 90.746 206.847 90.9487C206.613 91.2061 206.311 91.3918 205.976 91.484C205.447 91.6544 204.901 91.7666 204.348 91.8185C203.656 91.8185 202.786 91.8185 201.737 91.8185C200.689 91.8185 199.819 91.8185 199.149 91.8185C198.589 91.7661 198.035 91.654 197.498 91.484C197.163 91.3918 196.861 91.2061 196.628 90.9487C196.464 90.7388 196.378 90.4789 196.383 90.2127V34.2563C196.383 33.984 196.468 33.7187 196.628 33.498C196.863 33.2329 197.163 33.0331 197.498 32.9182C198.034 32.7392 198.588 32.6195 199.149 32.5613C200.008 32.4619 200.873 32.4172 201.737 32.4275C202.609 32.4179 203.481 32.4626 204.348 32.5613C204.902 32.6192 205.449 32.7389 205.976 32.9182C206.312 33.0331 206.611 33.2329 206.847 33.498C207.023 33.7108 207.118 33.9797 207.114 34.2563V90.2127Z" fill="#C82342" stroke="#5D0F2A" stroke-width="0.66" stroke-miterlimit="10"/>
<path d="M273.512 90.2127C273.524 90.4763 273.445 90.7359 273.289 90.9487C273.111 91.205 272.852 91.3937 272.553 91.484C272.1 91.6525 271.628 91.7648 271.147 91.8185C270.404 91.8598 269.659 91.8598 268.916 91.8185C268.173 91.8578 267.428 91.8578 266.685 91.8185C266.211 91.768 265.746 91.6555 265.302 91.484C265.006 91.3878 264.748 91.2004 264.566 90.9487C264.426 90.7291 264.356 90.4726 264.365 90.2127V85.7523C262.543 87.8137 260.377 89.542 257.961 90.8595C255.902 91.9635 253.605 92.5527 251.268 92.5768C248.97 92.6626 246.682 92.2281 244.575 91.3055C242.886 90.5001 241.416 89.2989 240.291 87.8041C239.21 86.2613 238.452 84.5168 238.06 82.6745C237.541 80.2943 237.302 77.8619 237.346 75.4263V52.2542C237.346 51.9888 237.432 51.7306 237.591 51.5183C237.806 51.2503 238.105 51.0618 238.439 50.983C238.977 50.8195 239.53 50.7148 240.09 50.6708C240.782 50.6708 241.652 50.6708 242.678 50.6708C243.705 50.6708 244.597 50.6708 245.266 50.6708C245.826 50.7172 246.379 50.8218 246.917 50.983C247.252 51.0752 247.554 51.2609 247.788 51.5183C247.947 51.7306 248.033 51.9888 248.033 52.2542V73.709C248.001 75.2051 248.128 76.7003 248.412 78.1695C248.637 79.1341 249.038 80.0489 249.595 80.8681C250.094 81.6111 250.778 82.2108 251.58 82.6076C252.461 83.0409 253.433 83.2552 254.414 83.2321C255.914 83.1889 257.361 82.6651 258.542 81.7379C260.205 80.4893 261.705 79.0355 263.004 77.4112V52.2542C262.996 51.9911 263.074 51.7326 263.227 51.5183C263.452 51.2512 263.757 51.0635 264.097 50.983C264.627 50.8214 265.173 50.7168 265.726 50.6708C266.417 50.6708 267.265 50.6708 268.314 50.6708C269.362 50.6708 270.233 50.6708 270.924 50.6708C271.47 50.7141 272.009 50.8189 272.531 50.983C272.866 51.0752 273.167 51.2609 273.401 51.5183C273.56 51.7306 273.646 51.9888 273.646 52.2542L273.512 90.2127Z" fill="#C82342" stroke="#5D0F2A" stroke-width="0.66" stroke-miterlimit="10"/>
<path d="M322.508 70.6759C322.548 73.7587 322.18 76.8334 321.414 79.8199C320.793 82.2996 319.719 84.6434 318.246 86.7336C316.908 88.6262 315.122 90.1585 313.048 91.194C310.836 92.257 308.406 92.7842 305.953 92.7329C304.926 92.7376 303.901 92.633 302.896 92.4206C301.971 92.1898 301.074 91.8608 300.219 91.4393C299.316 90.9664 298.458 90.4141 297.653 89.789C296.724 89.0992 295.838 88.3544 294.998 87.5587V105.401C295.01 105.681 294.923 105.958 294.753 106.181C294.517 106.446 294.218 106.646 293.882 106.761C293.359 106.914 292.82 107.011 292.276 107.051C290.554 107.2 288.822 107.2 287.1 107.051C286.538 106.993 285.984 106.873 285.449 106.694C285.114 106.579 284.814 106.379 284.579 106.114C284.408 105.891 284.321 105.615 284.333 105.334V52.2542C284.327 51.9946 284.397 51.7389 284.534 51.5183C284.726 51.2661 284.991 51.0791 285.293 50.983C285.746 50.8182 286.218 50.7132 286.698 50.6708C287.441 50.6273 288.186 50.6273 288.929 50.6708C289.672 50.6267 290.417 50.6267 291.16 50.6708C291.64 50.7183 292.112 50.8231 292.566 50.983C292.865 51.0733 293.124 51.2619 293.302 51.5183C293.455 51.7326 293.533 51.9911 293.525 52.2542V56.7147C294.554 55.6508 295.641 54.6456 296.783 53.7039C297.789 52.8505 298.881 52.1031 300.04 51.4737C301.125 50.8965 302.28 50.4617 303.476 50.1801C304.703 49.8805 305.962 49.7307 307.224 49.7341C309.699 49.664 312.15 50.2324 314.342 51.3844C316.281 52.4579 317.928 53.9892 319.139 55.8449C320.423 57.8999 321.337 60.1646 321.838 62.5356C322.358 65.2164 322.583 67.9462 322.508 70.6759ZM311.352 71.4565C311.361 69.8956 311.242 68.3366 310.995 66.7953C310.785 65.4114 310.372 64.0661 309.768 62.8032C309.248 61.7154 308.484 60.7616 307.537 60.0154C306.487 59.3005 305.236 58.9409 303.967 58.9895C303.256 58.9816 302.548 59.087 301.87 59.3018C301.08 59.5424 300.328 59.8954 299.639 60.35C298.834 60.8975 298.086 61.5252 297.408 62.2234C296.541 63.1182 295.729 64.064 294.976 65.0557V77.5673C296.224 79.2237 297.67 80.7216 299.282 82.0278C300.492 82.9984 301.991 83.5397 303.543 83.5666C304.808 83.6103 306.053 83.2425 307.091 82.5184C308.091 81.7798 308.914 80.8274 309.5 79.7306C310.153 78.5058 310.619 77.1903 310.883 75.8277C311.192 74.3608 311.349 72.8662 311.352 71.3673V71.4565Z" fill="#C82342" stroke="#5D0F2A" stroke-width="0.66" stroke-miterlimit="10"/>
<path d="M33.1767 72.1479C34.0111 76.2386 36.2542 79.9072 39.5156 82.5153C42.7769 85.1233 46.8499 86.5055 51.0256 86.4213H60.7532C61.0169 86.4098 61.2766 86.4885 61.4895 86.6444C61.7414 86.8458 61.9277 87.1175 62.025 87.4249C62.1849 87.8791 62.2898 88.3508 62.3373 88.83C62.3373 89.4098 62.4489 85.6631 62.4489 86.5998C62.4681 87.3449 62.4308 88.0905 62.3373 88.83C62.2891 89.3236 62.1843 89.81 62.025 90.2796C61.9335 90.6085 61.7473 90.9033 61.4895 91.1271C61.2795 91.291 61.0195 91.3776 60.7532 91.3724H35.9432C35.4794 91.4105 35.013 91.3437 34.5785 91.1771C34.144 91.0104 33.7526 90.7481 33.4333 90.4097C33.114 90.0712 32.8751 89.6653 32.7341 89.222C32.5931 88.7787 32.5537 88.3093 32.6189 87.8487L32.9982 70.9882C32.9982 70.9882 33.0428 71.3673 33.1767 72.1479Z" fill="#7D142E"/>
<path d="M41.7888 39.5642C42.1372 40.2523 42.262 41.032 42.1457 41.7945L41.9449 46.2549C41.9774 46.6106 41.9389 46.9693 41.8317 47.31C41.7244 47.6507 41.5506 47.9668 41.3202 48.2398C40.9013 47.8252 40.5829 47.3202 40.3895 46.7635C40.1961 46.2068 40.1329 45.6132 40.2047 45.0283C40.3382 43.85 40.3382 42.6605 40.2047 41.4822C40.0931 40.8578 38.866 38.9621 39.3568 38.4714C39.8477 37.9808 41.4764 39.0736 41.7888 39.5642Z" fill="white"/>
<path d="M80.1639 85.9753C81.5472 86.1091 85.2955 86.5328 87.1473 86.5328C88.7998 86.5514 90.4504 86.417 92.0781 86.1314C93.3206 85.9017 94.5496 85.6039 95.7594 85.2393C96.8081 84.9048 97.6559 84.6149 98.3475 84.3472C98.869 84.1144 99.4284 83.9784 99.9985 83.9458C100.222 83.9375 100.444 83.9834 100.646 84.0796C100.837 84.2115 100.985 84.398 101.069 84.6149C101.208 84.9642 101.29 85.3329 101.315 85.7077C101.315 86.176 101.315 86.7559 101.315 87.4695C101.315 88.1832 101.315 86.399 101.315 86.8228C101.315 87.2465 101.315 87.648 101.315 87.9602C101.263 88.2318 101.173 88.4947 101.047 88.7408C100.927 88.9676 100.777 89.1776 100.601 89.3652C100.152 89.7154 99.6462 89.9868 99.1061 90.1681C98.0727 90.5705 97.0145 90.9057 95.9379 91.1717C94.4672 91.5359 92.9775 91.8188 91.4757 92.0192C89.7243 92.2677 87.9569 92.387 86.188 92.376C83.4868 92.4105 80.8022 91.9494 78.2675 91.0156C75.7259 90.0573 73.4367 88.5317 71.5742 86.5552C69.9327 84.629 68.7841 82.3328 68.2275 79.8645C71.4512 83.1236 75.6343 85.2651 80.1639 85.9753Z" fill="#7D142E"/>
<path d="M97.6112 55.4212C99.0361 57.0725 100.216 58.9202 101.114 60.9075C101.502 61.5236 101.717 62.232 101.739 62.9593C101.739 63.673 101.047 64.409 100.333 64.2975C99.6192 64.186 99.2623 63.4054 99.0391 62.7363C98.6369 61.3469 98.1297 59.99 97.522 58.6773C96.9151 57.3586 95.9485 56.2378 94.7331 55.4435C94.0414 55.042 90.7617 53.9492 91.431 52.7003C92.1004 51.4514 94.8446 53.2355 95.447 53.6147C96.2507 54.1109 96.9795 54.7192 97.6112 55.4212Z" fill="white"/>
<path d="M135.228 89.053C135.119 89.4791 134.93 89.8804 134.67 90.235C134.346 90.5798 133.927 90.8204 133.465 90.9264C132.738 91.13 131.989 91.2498 131.234 91.2833C130.297 91.2833 129.003 91.2833 127.508 91.2833C126.013 91.2833 124.786 91.2833 123.827 91.2833C123.071 91.2461 122.322 91.1189 121.596 90.9041C121.147 90.799 120.742 90.5575 120.436 90.2127C120.164 89.879 119.966 89.4913 119.855 89.0753L115.237 75.2033C115.237 75.2033 123.738 87.4696 135.228 89.053Z" fill="#7D142E"/>
<path d="M141.542 52.7672C142.182 52.6372 142.846 52.7153 143.438 52.9902C143.704 53.1851 143.92 53.4405 144.067 53.7352C144.215 54.03 144.29 54.3556 144.286 54.6852C144.262 55.3499 144.127 56.0059 143.885 56.6255L142.791 60.2161C142.791 60.5061 142.568 60.8406 142.278 60.9075C141.988 60.9744 141.587 60.6399 141.564 60.2831C141.559 59.9189 141.643 59.559 141.81 59.2348C142.049 58.5753 142.154 57.8747 142.12 57.174C142.085 56.4733 141.912 55.7865 141.609 55.1535C140.503 55.3803 139.354 55.2474 138.329 54.7744C137.459 54.2614 137.236 53.1463 138.329 52.8564C139.397 52.7607 140.47 52.7309 141.542 52.7672Z" fill="white"/>
<path d="M164.121 85.9753C165.526 86.1091 169.275 86.5328 171.126 86.5328C172.779 86.5514 174.43 86.417 176.057 86.1314C177.3 85.9017 178.529 85.6039 179.739 85.2393C180.787 84.9048 181.635 84.6149 182.327 84.3472C182.848 84.1144 183.408 83.9784 183.978 83.9458C184.201 83.94 184.422 83.9858 184.625 84.0796C184.81 84.2184 184.956 84.4028 185.049 84.6149C185.177 84.9659 185.253 85.3343 185.272 85.7077C185.272 86.176 185.272 86.7559 185.272 87.4695C185.272 88.1832 185.272 86.399 185.272 86.8228C185.257 87.2049 185.212 87.5852 185.138 87.9602C185.105 88.2333 185.022 88.4979 184.892 88.7408C184.772 88.9676 184.622 89.1776 184.446 89.3652C183.991 89.7191 183.478 89.9908 182.929 90.1681C181.902 90.5675 180.852 90.9027 179.783 91.1717C178.312 91.5337 176.822 91.8166 175.321 92.0192C173.57 92.2677 171.802 92.387 170.033 92.376C167.325 92.4082 164.633 91.9472 162.09 91.0156C159.549 90.0573 157.26 88.5317 155.397 86.5552C153.742 84.6382 152.591 82.3384 152.05 79.8645C155.309 83.1503 159.543 85.294 164.121 85.9753Z" fill="#7D142E"/>
<path d="M181.59 55.4212C183.039 57.0727 184.248 58.9195 185.182 60.9075C185.574 61.5206 185.783 62.2321 185.785 62.9593C185.785 63.673 185.116 64.409 184.402 64.2975C183.688 64.186 183.331 63.4054 183.108 62.7363C182.705 61.3469 182.198 59.99 181.59 58.6773C180.983 57.3523 180.007 56.2298 178.779 55.4435C178.11 55.042 174.83 53.9492 175.477 52.7003C176.124 51.4514 178.913 53.2355 179.515 53.6147C180.284 54.1229 180.981 54.7303 181.59 55.4212Z" fill="white"/>
<path d="M197.141 67.6874C197.141 67.6874 201.224 78.058 206.445 80.2882V90.6588C206.445 90.6588 200.577 92.2869 197.141 90.3689V67.6874Z" fill="#7D142E"/>
<path d="M205.263 35.3491C205.607 36.0386 205.731 36.8169 205.619 37.5793L205.419 42.0398C205.463 42.7627 205.24 43.4766 204.794 44.047C204.375 43.628 204.056 43.1191 203.863 42.5588C203.67 41.9984 203.607 41.4015 203.678 40.8132C203.811 39.6424 203.811 38.4602 203.678 37.2894C203.678 36.6649 202.317 34.7693 202.831 34.2563C203.344 33.7434 204.972 34.8585 205.263 35.3491Z" fill="white"/>
<path d="M273.021 83.7451C273.021 84.035 273.356 90.2127 273.2 90.4358C273.013 90.6781 272.756 90.8571 272.464 90.9487C272.014 91.1277 271.54 91.2404 271.058 91.2833C270.315 91.3246 269.57 91.3246 268.827 91.2833C268.084 91.3213 267.339 91.3213 266.596 91.2833C266.121 91.2408 265.655 91.128 265.213 90.9487C264.929 90.8519 264.681 90.6734 264.499 90.4358C264.362 90.2067 264.293 89.944 264.298 89.6775V85.217C262.458 87.268 260.286 88.9945 257.872 90.3243C255.809 91.4172 253.514 91.9985 251.179 92.0192C248.88 92.1051 246.592 91.6705 244.486 90.748C242.793 89.9486 241.322 88.7464 240.202 87.2465C239.082 85.7128 238.285 83.9677 237.859 82.117C237.341 79.7368 237.101 77.3044 237.145 74.8688C240.458 78.085 244.547 80.3899 249.015 81.5595C249.674 82.2467 250.424 82.8397 251.246 83.3213C252.329 83.7861 253.504 83.9996 254.682 83.9458C262.491 83.5444 266.194 84.3249 273.021 83.7451Z" fill="#7D142E"/>
<path d="M271.839 53.637C272.183 54.3264 272.308 55.1048 272.196 55.8672L271.995 60.3277C272.028 60.6869 271.99 61.049 271.883 61.3935C271.776 61.7379 271.601 62.0578 271.37 62.3349C270.951 61.9159 270.633 61.4069 270.439 60.8466C270.246 60.2863 270.183 59.6894 270.255 59.101C270.388 57.9302 270.388 56.7481 270.255 55.5773C270.255 54.9528 268.916 53.0571 269.407 52.5442C269.898 52.0312 271.527 53.1463 271.839 53.637Z" fill="white"/>
<path d="M285.003 82.8084C285.003 82.8084 289.085 93.0674 294.306 95.4761V105.869C294.306 105.869 288.416 107.475 285.003 105.579V82.8084Z" fill="#7D142E"/>
<path d="M315.056 55.4212C316.473 57.0782 317.652 58.9248 318.558 60.9075C318.95 61.5206 319.159 62.2321 319.161 62.9593C319.161 63.673 318.492 64.409 317.778 64.2975C317.064 64.186 316.707 63.4054 316.484 62.7363C316.081 61.3469 315.574 59.99 314.966 58.6773C314.359 57.3523 313.383 56.2298 312.155 55.4435C311.486 55.042 308.206 53.9492 308.853 52.7003C309.5 51.4514 312.289 53.2355 312.891 53.6147C313.691 54.1165 314.419 54.7242 315.056 55.4212Z" fill="white"/>
</svg>
