<svg width="811" height="600" viewBox="0 0 811 600" fill="none" xmlns="http://www.w3.org/2000/svg">
<path d="M728.664 2.66956V10.9106H730.723C732.175 10.9272 733.603 11.2812 734.895 11.9448C736.186 12.6084 737.306 13.5634 738.166 14.7344C740.101 16.9415 741.197 19.76 741.262 22.6952V448.64C741.201 454.33 739.229 459.833 735.663 464.265C731.941 469.177 726.644 471.633 719.771 471.633H700.998L670.367 472.226L665.657 471.633C664.551 471.665 663.445 471.566 662.363 471.336C661.473 471.304 660.587 471.205 659.712 471.039C654.696 469.684 650.382 466.473 647.641 462.057C645.022 458.067 643.594 453.413 643.524 448.64V364.384H564.081V372.625H566.156C567.617 372.63 569.057 372.979 570.358 373.643C571.66 374.307 572.787 375.269 573.649 376.449C575.602 378.654 576.71 381.481 576.778 384.426V448.706C576.717 454.396 574.745 459.899 571.179 464.331C567.457 469.243 562.16 471.699 555.287 471.699H537.255C536.066 471.756 534.876 471.657 533.714 471.402C532.716 471.323 531.732 471.124 530.783 470.809C525.826 469.497 521.56 466.336 518.86 461.974C516.311 458.014 514.93 453.416 514.874 448.706C514.695 434.765 510.837 421.118 503.692 409.149C496.057 395.91 485.102 384.894 471.909 377.191C459.096 369.231 444.303 365.044 429.223 365.109H427.148L307.046 385.135V364.978H227.653V373.219H229.711C231.232 373.163 232.744 373.469 234.123 374.11C235.503 374.752 236.711 375.712 237.649 376.911C239.547 379.18 240.59 382.044 240.597 385.003L239.708 471.336H211.415V471.765L210.361 471.633C207.46 471.662 204.582 471.103 201.902 469.99C199.222 468.877 196.794 467.232 194.766 465.155C190.451 460.837 188.294 456.799 188.294 453.074V267.75H108.802V275.991H110.861C112.372 275.972 113.866 276.31 115.222 276.978C116.578 277.645 117.758 278.622 118.667 279.831C120.596 282.035 121.692 284.846 121.763 287.776V506.987C121.721 512.199 119.903 517.24 116.608 521.277C114.882 523.461 112.658 525.2 110.122 526.348C107.586 527.495 104.813 528.017 102.034 527.869C95.3587 527.869 90.3029 525.71 86.8666 521.392C83.5292 517.323 81.7124 512.218 81.7285 506.954V407.666H3.12592V415.907H5.18444C6.53556 415.906 7.86751 416.227 9.07021 416.843C10.2729 417.459 11.3118 418.353 12.1011 419.451C13.8539 421.511 14.8427 424.113 14.9006 426.818V511.668C14.9793 525.913 18.6741 539.905 25.6379 552.329C32.807 565.514 43.5553 576.414 57.8826 585.029C71.314 592.733 86.5539 596.715 102.034 596.567C115.922 596.851 129.663 593.673 142.018 587.32C153.172 581.494 162.918 573.298 170.574 563.306C177.841 553.888 183.058 543.052 185.89 531.495C193.8 534.41 202.162 535.906 210.592 535.913H427.972C448.291 536.217 468.042 529.197 483.618 516.134C491.218 521.839 499.521 526.542 508.32 530.127C517.193 533.838 526.7 535.791 536.316 535.88H556.638C566.9 535.979 577.087 534.128 586.659 530.424C595.677 526.927 603.964 521.779 611.098 515.244C618.664 521.442 627.155 526.414 636.261 529.979C645.665 533.857 655.734 535.861 665.904 535.88H721.253C738.534 535.88 753.696 531.265 766.739 522.035C779.439 513.197 789.877 501.485 797.205 487.851C804.462 474.303 808.096 461.238 808.107 448.657V2.66956H728.664ZM443.106 464.562C441.323 466.807 439.03 468.593 436.417 469.771C433.805 470.95 430.949 471.486 428.087 471.336H307.095V451.887C309.182 451.663 311.247 451.272 313.271 450.717C317.201 450.124 320.05 449.629 321.818 449.234C335.75 446.487 349.583 443.839 363.318 441.289C378.238 438.345 393.35 435.493 408.655 432.735C415.257 431.177 421.943 429.999 428.68 429.208H429.273C431.993 429.115 434.694 429.699 437.134 430.907C439.574 432.115 441.677 433.91 443.254 436.13C446.451 440.107 448.255 445.022 448.392 450.124C448.331 455.4 446.466 460.496 443.106 464.562Z" fill="#B1C5CD" stroke="black" stroke-width="5" stroke-miterlimit="10"/>
<path d="M752.263 179.373C751.522 182.966 750.616 186.658 751.193 190.284C751.769 193.911 754.486 197.487 758.208 197.718C759.784 197.689 761.319 197.207 762.629 196.331C763.94 195.454 764.972 194.219 765.602 192.773C766.801 189.844 767.416 186.709 767.414 183.543L773.013 94.9359C773.672 84.6511 774.281 74.0862 771.119 64.2794C769.373 58.8897 760.794 43.0011 753.004 45.7371C746.417 48.0611 747.767 68.8119 747.784 74.3993C747.784 96.9468 752.527 119.132 754.042 141.58C755.15 154.201 754.552 166.913 752.263 179.373Z" fill="white"/>
<path d="M754.503 222.902C753.959 226.067 753.86 230.171 756.759 231.556C757.579 231.895 758.479 231.994 759.353 231.843C760.227 231.691 761.041 231.294 761.699 230.698C763.006 229.506 763.93 227.951 764.351 226.232C765.998 220.958 764.137 208.81 757.319 208.25C755.688 212.799 755.326 218.123 754.503 222.902Z" fill="white"/>
<path d="M293.196 410.105C295.568 412.759 299.784 412.215 303.225 411.457L316.96 408.474C319.414 407.946 325.935 406.183 325.194 402.441C324.634 399.26 319.134 400.002 316.548 399.985C307.622 399.887 298.927 402.721 293.196 410.105Z" fill="white"/>
<path d="M382.915 385.135C397.901 381.839 413.118 378.658 428.433 379.482C443.748 380.306 459.41 385.547 469.883 396.771C472.568 399.639 474.972 403.958 472.913 407.32C470.41 411.407 464.251 410.039 459.739 408.375C429.908 397.459 397.358 396.447 366.908 405.49C360.321 407.452 353.733 409.891 346.915 409.05C335.388 407.617 329.295 395.733 342.765 392.387C355.858 389.14 369.691 388.085 382.915 385.135Z" fill="white"/>
<path d="M130.063 308.658L129.47 400.661C133.175 401.864 137.276 399.227 139.038 395.717C140.8 392.206 140.866 388.151 140.866 384.179V310.257C140.866 303.104 141.739 294.467 148.128 291.286C153.546 288.6 161.632 287.99 159.261 279.436C157.762 274.079 153.118 273.403 148.326 274.656C132.697 278.859 130.161 294.83 130.063 308.658Z" fill="white"/>
<path d="M41.5626 422.352C37.0174 424.132 32.4557 426.472 29.6232 430.461C27.1859 433.922 26.3296 438.224 25.5226 442.394L22.229 459.255C21.4963 461.915 21.4004 464.71 21.949 467.413C22.6901 470.067 25.1274 472.44 27.8611 472.16C31.9123 471.732 33.2462 466.556 33.3944 462.485C33.3035 457.419 33.7116 452.357 34.6131 447.371C35.7823 442.427 38.4666 437.614 42.8471 435.175C46.2561 433.312 50.2908 433.048 54.1772 432.603C59.6117 431.977 72.2922 427.494 65.6062 420.308C60.1881 414.457 47.31 420.061 41.5626 422.352Z" fill="white"/>
<path d="M184.836 505.025H183.189C180.175 504.514 177.705 504.795 176.602 507.613C169.405 524.985 146.959 550.466 137.803 557.257C95.2983 588.985 42.4684 559.564 19.3306 511.816C18.4743 510.019 18.0461 508.998 18.0461 508.998C18.0461 522.941 18.6389 538.665 25.8026 551.851C32.9662 565.036 43.72 575.898 58.0473 584.551C71.4787 592.255 86.7186 596.237 102.198 596.089C116.035 596.33 129.716 593.136 142.018 586.793C153.172 580.966 162.918 572.77 170.574 562.778C177.841 553.36 183.058 542.525 185.89 530.968C193.8 533.883 202.162 535.378 210.592 535.385H427.972C448.291 535.69 468.042 528.67 483.618 515.607C491.218 521.312 499.521 526.015 508.32 529.6C517.193 533.31 526.7 535.264 536.316 535.352H556.638C566.9 535.452 577.087 533.601 586.659 529.897C595.705 526.435 604.027 521.315 611.197 514.799C618.763 520.997 627.254 525.969 636.36 529.534C645.763 533.412 655.832 535.416 666.003 535.435H721.352C738.633 535.435 753.794 530.82 766.837 521.59C779.537 512.752 789.975 501.04 797.303 487.406C797.666 486.73 798.028 486.055 798.374 485.362C804.941 472.12 808.325 457.524 808.255 442.74V410.435C808.255 410.435 795.986 488.527 716.231 509.031C716.231 509.031 660.025 521.244 623.054 488.28C620.764 486.258 617.824 485.127 614.771 485.094C611.718 485.061 608.754 486.127 606.421 488.098C590.331 501.531 551.253 523.732 489.826 494.378C486.039 492.565 481.592 491.197 477.656 492.829C441.146 508.206 290.693 523.04 184.836 505.025Z" fill="#2D5B71"/>
<path d="M657.258 303.829C651.681 297.039 643.584 293.649 632.968 293.66C626.349 293.437 619.822 295.261 614.276 298.885C609.435 302.121 605.609 306.664 603.243 311.988C600.701 306.687 596.789 302.163 591.912 298.885C586.358 295.287 579.833 293.485 573.221 293.726C562.813 293.726 554.766 297.116 549.079 303.895C543.723 309.825 540.693 317.495 540.548 325.487C540.548 332.761 543.397 339.903 549.095 346.913C554.793 353.924 562.841 357.412 573.238 357.379C579.892 357.62 586.447 355.707 591.929 351.924C596.775 348.485 600.672 343.876 603.259 338.524C605.668 343.901 609.479 348.53 614.293 351.924C619.774 355.709 626.329 357.622 632.984 357.379C643.392 357.379 651.439 353.94 657.126 347.062C662.813 340.183 665.673 332.991 665.706 325.487C665.57 317.488 662.573 309.804 657.258 303.829Z" fill="#B1C5CD" stroke="black" stroke-width="5" stroke-miterlimit="10"/>
<path d="M645.945 309.268C640.529 306.563 634.304 305.964 628.472 307.587C622.641 309.209 617.618 312.939 614.375 318.053C613.944 318.861 613.389 319.595 612.728 320.229C612.39 320.539 611.969 320.746 611.517 320.825C611.065 320.904 610.599 320.851 610.176 320.674C608.792 319.932 609.072 317.872 609.665 316.405C611.991 310.802 616.146 306.154 621.453 303.22C626.759 300.286 632.903 299.24 638.88 300.253C638.962 300.253 638.139 300.599 638.205 300.599C640.148 300.373 642.118 300.657 643.919 301.423C645.039 302.027 645.918 302.999 646.406 304.175C646.883 305.362 646.949 308.428 645.945 309.268Z" fill="white"/>
<path d="M584.584 309.268C579.169 306.563 572.943 305.964 567.112 307.587C561.281 309.209 556.258 312.939 553.015 318.053C552.584 318.861 552.028 319.595 551.368 320.229C551.029 320.539 550.609 320.746 550.157 320.825C549.704 320.904 549.239 320.851 548.815 320.674C547.415 319.932 547.695 317.872 548.305 316.405C550.63 310.802 554.786 306.154 560.092 303.22C565.399 300.286 571.542 299.24 577.519 300.253C577.519 300.253 576.762 300.599 576.844 300.599C578.788 300.373 580.757 300.657 582.559 301.423C583.671 302.032 584.543 303.003 585.029 304.175C585.441 305.362 585.506 308.428 584.584 309.268Z" fill="white"/>
</svg>
