<svg width="182" height="569" viewBox="0 0 182 569" fill="none" xmlns="http://www.w3.org/2000/svg">
<path d="M159.615 553.545C154.964 557.356 149.055 559.286 143.053 558.954C137.051 558.621 131.391 556.05 127.189 551.748C124.759 549.213 122.925 546.166 121.82 542.831C121.654 542.354 121.372 541.926 121.001 541.584C120.629 541.242 120.179 540.998 119.69 540.872C119.201 540.747 118.688 540.744 118.198 540.864C117.708 540.985 117.255 541.224 116.88 541.562L92.2763 564.307C91.6275 564.91 90.8661 565.379 90.0359 565.686C89.2056 565.993 88.3228 566.133 87.4383 566.098C86.5538 566.063 85.685 565.853 84.8817 565.481C84.0785 565.108 83.3567 564.581 82.7578 563.928L59.1094 538.315C58.7331 537.918 58.4708 537.426 58.35 536.892C58.2292 536.358 58.2544 535.801 58.4229 535.28C58.5914 534.759 58.8969 534.293 59.3075 533.931C59.7181 533.569 60.2185 533.324 60.7562 533.222C65.2671 532.49 69.4953 530.548 72.991 527.602C76.4866 524.656 79.1191 520.817 80.6083 516.493C82.0975 512.169 82.3876 507.522 81.4479 503.046C80.5082 498.57 78.3738 494.433 75.2718 491.075C72.1698 487.716 68.2161 485.262 63.8314 483.974C59.4468 482.685 54.7951 482.61 50.3713 483.757C45.9475 484.904 41.9171 487.229 38.7087 490.486C35.5004 493.743 33.2341 497.809 32.151 502.253C32.0082 502.783 31.7254 503.266 31.3322 503.65C30.9391 504.034 30.4501 504.305 29.9164 504.434C29.3827 504.564 28.8239 504.548 28.2986 504.387C27.7733 504.227 27.3008 503.928 26.9306 503.522L3.87518 478.617C3.27651 477.967 2.81178 477.206 2.50759 476.376C2.20341 475.546 2.06571 474.664 2.10242 473.78C2.13913 472.897 2.34948 472.03 2.72149 471.228C3.0935 470.426 3.61986 469.705 4.2704 469.107L29.2032 446.032C29.5846 445.678 29.8694 445.232 30.031 444.737C30.1925 444.242 30.2253 443.714 30.1265 443.203C30.0276 442.692 29.8003 442.214 29.4659 441.815C29.1315 441.416 28.701 441.109 28.2152 440.923C24.8556 439.647 21.8278 437.627 19.3583 435.015C16.8889 432.402 15.0417 429.265 13.9551 425.837C12.8685 422.409 12.5705 418.779 13.0834 415.22C13.5964 411.66 14.9071 408.263 16.9173 405.282C18.9276 402.301 21.5853 399.814 24.6918 398.007C27.7982 396.199 31.2729 395.118 34.8558 394.844C38.4387 394.571 42.037 395.112 45.3815 396.427C48.726 397.741 51.7301 399.796 54.1689 402.437C56.6883 405.151 58.5332 408.42 59.5541 411.981C59.7074 412.467 59.9802 412.907 60.3474 413.26C60.7147 413.614 61.1647 413.87 61.6562 414.004C62.1477 414.139 62.665 414.148 63.1609 414.03C63.6568 413.913 64.1153 413.673 64.4945 413.332L89.4274 390.257C90.0748 389.656 90.8343 389.188 91.6624 388.881C92.4905 388.574 93.371 388.433 94.2535 388.467C95.1361 388.501 96.0033 388.708 96.8057 389.077C97.608 389.447 98.3297 389.971 98.9295 390.62L123.121 416.81C123.492 417.221 123.968 417.523 124.498 417.684C125.028 417.845 125.591 417.858 126.128 417.723C126.665 417.587 127.154 417.308 127.544 416.915C127.934 416.521 128.21 416.029 128.342 415.491C129.507 410.607 132.195 406.22 136.016 402.965C140.768 398.971 146.89 396.99 153.079 397.443C159.268 397.896 165.036 400.748 169.157 405.392C173.278 410.036 175.426 416.105 175.145 422.31C174.864 428.514 172.175 434.364 167.651 438.615C164.215 441.806 159.911 443.905 155.284 444.648C154.736 444.736 154.223 444.971 153.799 445.328C153.374 445.685 153.055 446.15 152.874 446.675C152.693 447.199 152.658 447.763 152.772 448.306C152.886 448.848 153.145 449.35 153.521 449.757L177.68 475.931C178.282 476.58 178.751 477.342 179.058 478.173C179.365 479.004 179.504 479.888 179.469 480.773C179.434 481.658 179.224 482.528 178.852 483.332C178.48 484.136 177.953 484.858 177.301 485.457L152.715 508.203C152.338 508.549 152.054 508.985 151.889 509.47C151.724 509.955 151.683 510.474 151.77 510.979C151.856 511.484 152.068 511.959 152.386 512.361C152.703 512.762 153.116 513.078 153.587 513.279C157.354 514.865 160.65 517.394 163.157 520.623C165.665 523.852 167.3 527.672 167.905 531.717C168.511 535.761 168.066 539.894 166.614 543.717C165.162 547.539 162.752 550.924 159.615 553.545Z" fill="#C82342" stroke="#5D0F2A" stroke-width="4" stroke-miterlimit="10"/>
<path d="M38.0302 402.619C42.8741 403.161 47.3881 405.341 50.826 408.799C47.5324 410.217 43.8435 408.668 40.3688 407.794C37.4153 407.057 34.3597 406.818 31.3277 407.085C29.9279 407.201 24.2134 409.277 23.7194 407.217C22.8301 403.327 35.9552 402.404 38.0302 402.619Z" fill="white"/>
<path d="M145.716 405.767C150.248 403.974 155.255 403.782 159.911 405.223C157.671 408.025 153.67 408.387 150.195 409.245C147.242 409.979 144.432 411.199 141.878 412.854C140.693 413.612 136.609 418.128 135.291 416.53C132.607 413.53 143.772 406.558 145.716 405.767Z" fill="white"/>
<path d="M83.647 556.61C81.0615 559.297 87.1383 564.472 89.872 561.934L114.459 539.189C114.834 538.851 115.287 538.611 115.777 538.491C116.268 538.37 116.78 538.373 117.269 538.499C117.758 538.624 118.208 538.869 118.58 539.211C118.952 539.552 119.233 539.981 119.399 540.458C120.527 543.832 122.394 546.91 124.864 549.468C127.334 552.026 130.344 553.998 133.674 555.241C137.005 556.484 140.57 556.965 144.111 556.65C147.651 556.334 151.076 555.23 154.135 553.419C157.193 551.607 159.808 549.134 161.788 546.179C163.768 543.225 165.063 539.865 165.577 536.345C166.091 532.826 165.813 529.235 164.761 525.837C163.709 522.439 161.912 519.32 159.499 516.707C157.205 514.214 154.395 512.251 151.265 510.955C150.794 510.754 150.381 510.438 150.064 510.037C149.746 509.635 149.534 509.16 149.447 508.655C149.361 508.15 149.402 507.631 149.567 507.146C149.732 506.661 150.016 506.225 150.393 505.879L174.996 483.133C177.73 480.612 175.638 478.65 173.119 475.914L150.063 450.812C150.063 450.812 152.089 485.441 83.647 556.61Z" fill="#7D142E"/>
<path d="M113.125 0.407715C114.327 2.2537 115.645 4.05026 116.748 5.96218C117.851 7.87409 118.988 9.80249 119.877 11.8298C120.766 13.8571 121.804 15.8349 122.578 17.9281L123.813 21.0268L124.85 24.2078C127.546 32.7058 129.318 41.47 130.137 50.3483C131.663 68.0717 130.821 85.9197 127.633 103.42C126.118 112.123 124.34 120.743 122.429 129.363C120.519 137.983 118.691 146.554 117.209 155.207C115.727 163.86 114.541 172.579 113.915 181.331C113.336 190.072 113.292 198.84 113.784 207.587C114.985 225.068 117.134 242.472 120.223 259.72C123.154 277.026 126.629 294.332 129.313 311.72C132.135 329.207 133.627 346.882 133.776 364.595C133.942 382.343 131.319 400.008 126.003 416.942L125.542 416.744C129.313 399.633 130.786 382.095 129.922 364.595C129.626 355.859 128.852 347.157 127.798 338.471C126.744 329.785 125.542 321.148 124.109 312.544C121.31 295.238 118.247 277.932 115.645 260.445C112.833 243 111.308 225.371 111.083 207.702C111.125 190.025 112.645 172.383 115.628 154.96L119.729 128.852C121.112 120.166 122.446 111.48 123.566 102.794C124.686 94.1081 125.723 85.455 126.283 76.7525C126.827 68.064 126.827 59.35 126.283 50.6614C125.734 41.9867 124.395 33.3802 122.281 24.9495L121.441 21.7849L120.47 18.6698C119.86 16.5766 119.07 14.5493 118.296 12.522C117.522 10.4947 116.534 8.51689 115.678 6.50609C114.821 4.49528 113.668 2.6328 112.664 0.671433L113.125 0.407715Z" fill="#1D1D1B"/>
<path d="M51.1553 100.635C48.5329 102.403 46.2045 104.572 44.2551 107.063C42.3621 109.55 40.7854 112.263 39.5616 115.139C37.1786 120.886 35.9529 127.047 35.9551 133.269C36.0286 139.539 36.802 145.78 38.2607 151.878C39.6605 158.025 41.4061 164.173 43.0035 170.436C45.9843 182.996 48.471 195.654 50.7271 208.345L51.6493 213.075L52.4892 217.839C53.0821 221.003 53.6255 224.168 54.2513 227.332C55.2394 233.694 56.6227 239.991 57.545 246.386C61.6782 271.881 63.4916 297.698 62.963 323.521L62.8312 328.367L62.6007 333.213L62.0572 342.888C61.4644 349.316 61.0691 355.76 60.1798 362.155C58.6288 374.966 56.4302 387.69 53.5926 400.278L53.0821 400.262C53.5761 393.834 54.3995 387.455 54.8277 381.06L55.6346 371.468L56.2274 361.875L56.5403 357.079L56.7379 352.283L57.1991 342.69C57.1991 336.279 57.6931 329.9 57.6108 323.505L57.7261 313.912C57.7261 310.715 57.6437 307.517 57.7261 304.32V299.524L57.5943 294.727L57.3309 285.118L56.8368 275.542L56.6227 270.73L56.2769 265.95C56.0299 262.752 55.8322 259.555 55.6346 256.357L54.8112 246.765L54.3666 241.985L53.8067 237.205C53.4444 234.008 53.0437 230.821 52.6045 227.645C51.5341 221.316 50.5953 214.971 49.1461 208.708C48.4545 205.576 47.7409 202.45 47.0053 199.329L44.4692 190.05C43.6458 186.935 42.8224 183.869 41.8014 180.804L39.0347 171.59C37.1737 165.459 35.2964 159.262 33.9954 152.866C32.5337 146.425 31.9084 139.822 32.1346 133.22C32.4089 126.542 34.1401 120.005 37.2067 114.068C40.1841 108.117 44.9931 103.281 50.9247 100.272L51.1553 100.635Z" fill="#1D1D1B"/>
<path d="M92.2763 251.643C91.4858 254.61 90.3825 257.445 89.7073 260.428C89.3285 261.895 88.8675 263.346 88.5381 264.812L87.4841 269.23C86.1602 275.098 85.1596 281.035 84.4869 287.014C83.7952 292.98 83.2518 298.947 83.153 304.946C82.9228 310.959 83.1375 316.98 83.7953 322.961C84.4674 328.953 85.5347 334.894 86.9901 340.745C88.546 346.601 90.4206 352.367 92.6057 358.018C94.8742 363.765 96.5677 369.722 97.6614 375.802C98.136 378.88 98.1748 382.01 97.7767 385.098C97.354 388.189 96.294 391.158 94.6642 393.817L94.236 393.554C95.6725 390.904 96.5471 387.986 96.805 384.983C97.0227 381.991 96.8176 378.984 96.1957 376.05C94.7963 370.162 92.8215 364.426 90.3001 358.925C87.8447 353.272 85.7007 347.49 83.8776 341.602C80.4012 329.678 78.5076 317.348 78.2455 304.93C78.1302 301.815 78.3443 298.7 78.4431 295.584C78.5419 292.469 78.9866 289.387 79.5794 286.322C81.5203 274.047 85.6658 262.225 91.8152 251.429L92.2763 251.643Z" fill="#1D1D1B"/>
</svg>
