<svg width="161" height="403" viewBox="0 0 161 403" fill="none" xmlns="http://www.w3.org/2000/svg">
<path d="M43.609 357.79C46.4153 360.09 49.9841 361.254 53.6092 361.052C57.2344 360.851 60.6517 359.299 63.1851 356.703C64.6608 355.171 65.787 353.339 66.4863 351.332C66.5785 351.035 66.7455 350.767 66.9713 350.554C67.197 350.34 67.4739 350.188 67.7755 350.112C68.077 350.036 68.3931 350.038 68.6934 350.119C68.9937 350.2 69.2682 350.357 69.4904 350.574L84.3129 364.249C84.7049 364.611 85.1646 364.892 85.6657 365.076C86.1668 365.26 86.6993 365.344 87.2329 365.323C87.7664 365.301 88.2905 365.175 88.7751 364.951C89.2597 364.727 89.6953 364.41 90.057 364.018L104.318 348.597C104.542 348.354 104.697 348.056 104.766 347.734C104.835 347.411 104.817 347.076 104.712 346.763C104.608 346.45 104.421 346.171 104.172 345.955C103.923 345.738 103.62 345.592 103.295 345.532C100.977 345.156 98.7781 344.251 96.8685 342.888C94.9589 341.524 93.3904 339.739 92.2852 337.671C91.1801 335.604 90.5681 333.309 90.497 330.967C90.4259 328.624 90.8976 326.297 91.8753 324.166C92.853 322.035 94.3104 320.159 96.1338 318.682C97.9572 317.206 100.098 316.17 102.388 315.655C104.678 315.139 107.057 315.159 109.339 315.711C111.62 316.264 113.743 317.335 115.542 318.841C118.021 320.941 119.776 323.765 120.56 326.914C120.627 327.267 120.795 327.593 121.044 327.851C121.293 328.11 121.612 328.291 121.962 328.371C122.313 328.451 122.679 328.428 123.016 328.304C123.353 328.18 123.647 327.96 123.861 327.672L137.726 312.679C138.088 312.291 138.369 311.835 138.553 311.337C138.737 310.84 138.821 310.311 138.8 309.781C138.778 309.251 138.652 308.731 138.428 308.25C138.204 307.769 137.887 307.337 137.495 306.979L122.145 293.271C121.918 293.054 121.749 292.784 121.653 292.485C121.558 292.186 121.539 291.869 121.598 291.561C121.657 291.253 121.792 290.964 121.992 290.722C122.191 290.48 122.448 290.291 122.739 290.173C125.372 289.231 127.669 287.534 129.341 285.296C131.784 282.364 132.96 278.584 132.61 274.786C132.26 270.989 130.414 267.486 127.476 265.047C124.539 262.609 120.751 261.436 116.947 261.785C113.143 262.134 109.633 263.977 107.19 266.909C105.654 268.535 104.523 270.499 103.889 272.643C103.8 272.945 103.634 273.219 103.409 273.439C103.183 273.659 102.905 273.818 102.601 273.901C102.296 273.983 101.976 273.987 101.67 273.911C101.364 273.835 101.082 273.682 100.852 273.467L85.8314 259.561C85.4394 259.199 84.9797 258.918 84.4786 258.734C83.9775 258.549 83.445 258.466 82.9114 258.487C82.3779 258.508 81.8538 258.635 81.3692 258.859C80.8846 259.082 80.449 259.4 80.0873 259.792L65.496 275.543C65.2702 275.783 64.984 275.959 64.6672 276.051C64.3504 276.144 64.0145 276.15 63.6944 276.07C63.3743 275.989 63.0818 275.824 62.8471 275.592C62.6124 275.361 62.4441 275.07 62.3598 274.752C61.7555 272.215 60.4708 269.89 58.6434 268.026C56.8161 266.162 54.5149 264.83 51.9868 264.172C49.4586 263.515 46.7988 263.556 44.2925 264.293C41.7863 265.029 39.528 266.432 37.76 268.352C35.992 270.272 34.7809 272.636 34.2565 275.191C33.7321 277.746 33.9142 280.395 34.7834 282.854C35.6525 285.314 37.1758 287.49 39.19 289.151C41.2042 290.812 43.6334 291.894 46.2169 292.282C46.5445 292.337 46.8512 292.48 47.1046 292.694C47.358 292.909 47.5488 293.188 47.6569 293.501C47.765 293.815 47.7864 294.152 47.7189 294.476C47.6514 294.801 47.4975 295.102 47.2733 295.347L32.6489 311.098C32.2945 311.497 32.0226 311.963 31.8489 312.468C31.6753 312.973 31.6033 313.507 31.637 314.04C31.6707 314.572 31.8096 315.093 32.0456 315.572C32.2815 316.051 32.61 316.479 33.0121 316.831L47.8345 330.506C48.0639 330.715 48.2369 330.978 48.3377 331.271C48.4384 331.564 48.4636 331.877 48.411 332.183C48.3584 332.488 48.2296 332.775 48.0366 333.018C47.8435 333.26 47.5924 333.45 47.3063 333.571C45.449 334.304 43.7715 335.428 42.3875 336.866C41.0327 338.291 39.985 339.978 39.3092 341.822C38.6334 343.667 38.3437 345.631 38.4582 347.592C38.5727 349.553 39.0888 351.47 39.9748 353.224C40.8607 354.978 42.0976 356.532 43.609 357.79Z" fill="#C82342" stroke="#5D0F2A" stroke-width="1.2" stroke-miterlimit="10"/>
<path d="M116.962 266.909C114.043 267.234 111.321 268.534 109.237 270.6C111.327 271.142 113.536 271.003 115.542 270.204C117.322 269.764 119.162 269.619 120.989 269.776C121.815 269.776 125.281 271.094 125.578 269.776C126.139 267.404 118.216 266.909 116.962 266.909Z" fill="white"/>
<path d="M52.0271 268.853C49.2865 267.774 46.2594 267.658 43.4439 268.524C45.0819 269.937 47.1289 270.791 49.2871 270.962C51.0842 271.39 52.7932 272.126 54.3379 273.137C55.0312 273.565 57.6391 276.432 58.3324 275.345C59.9169 273.5 53.1825 269.315 52.0271 268.853Z" fill="white"/>
<path d="M89.4628 359.603C91.0144 361.217 87.35 364.348 85.6994 362.898L70.844 349.289C70.6213 349.079 70.3492 348.93 70.053 348.853C69.7568 348.777 69.446 348.777 69.1496 348.852C68.8533 348.928 68.5808 349.077 68.3576 349.286C68.1344 349.494 67.9677 349.756 67.8729 350.047C67.1884 352.067 66.0607 353.91 64.5722 355.44C63.0837 356.97 61.2717 358.15 59.2685 358.892C57.2653 359.635 55.1214 359.922 52.993 359.732C50.8646 359.543 48.8054 358.881 46.9655 357.796C45.1257 356.712 43.5516 355.231 42.358 353.461C41.1645 351.692 40.3815 349.679 40.0662 347.57C39.7509 345.46 39.9113 343.307 40.5356 341.267C41.1599 339.227 42.2325 337.352 43.675 335.778C45.059 334.341 46.7365 333.217 48.5938 332.483C48.8799 332.363 49.131 332.173 49.3241 331.93C49.5171 331.688 49.6459 331.401 49.6985 331.095C49.7511 330.79 49.7259 330.476 49.6252 330.183C49.5244 329.89 49.3514 329.627 49.122 329.419L34.2666 315.744C32.649 314.228 33.9034 313.042 35.422 311.394L49.5181 295.973C49.5181 295.973 48.1647 316.798 89.4628 359.603Z" fill="#7D142E"/>
<path d="M71.9334 25.1422C66.9469 34.4218 64.1257 44.7063 63.6803 55.2271C63.1538 65.7028 63.718 76.2048 65.364 86.5643C66.7505 97.01 68.6652 107.489 70.1837 117.934C70.943 123.207 71.7353 128.446 72.1975 133.751C72.6596 139.056 72.8907 144.362 72.8577 149.667C72.7502 160.308 71.8454 170.926 70.1507 181.432C68.5991 191.911 66.8495 202.357 65.0008 212.769C61.6996 233.529 59.3227 254.75 64.1425 275.378H63.8454C60.6793 265.179 59.1093 254.553 59.1907 243.876C59.2874 233.221 60.2145 222.589 61.9637 212.077C65.2649 191.087 70.1177 170.492 71.2401 149.469C71.8604 138.974 71.2176 128.442 69.3254 118.099C67.6088 107.686 64.8688 97.4383 63.0861 86.9597C61.1941 76.4271 60.6836 65.6935 61.5676 55.0294C62.3533 44.2994 65.8886 33.951 71.8343 24.9774L71.9334 25.1422Z" fill="#1D1D1B"/>
<path d="M123.663 44.419C131.678 50.1511 137.61 58.3271 140.566 67.7159C142.049 72.3914 142.98 77.2243 143.339 82.1158C143.84 87.0067 143.762 91.9395 143.107 96.8123C142.296 101.613 141.137 106.348 139.641 110.982C138.354 115.628 136.736 120.208 135.218 124.788C131.916 133.916 129.011 143.077 126.337 152.336C123.663 161.595 121.286 170.954 118.844 180.279C116.401 189.604 114.288 198.963 112.241 208.354C108.577 227.169 105.639 246.281 107.718 265.492H107.421C105.563 255.979 104.964 246.263 105.639 236.594C106.19 226.902 107.459 217.265 109.435 207.761C111.35 198.238 113.826 188.879 116.533 179.587C119.24 170.295 122.442 161.2 125.413 152.006C131.421 133.751 136.241 114.87 140.731 96.4169C141.487 91.7331 141.664 86.9745 141.259 82.2476C141.077 77.4955 140.323 72.7826 139.014 68.2101C136.416 58.9568 131.02 50.7291 123.564 44.6496L123.663 44.419Z" fill="#1D1D1B"/>
<path d="M84.544 45.6052C88.5982 63.2916 90.9855 81.3179 91.6746 99.4484C91.8727 103.996 91.6746 108.543 91.8727 113.057V126.634L91.5425 153.819C91.1427 171.958 89.3993 190.043 86.3266 207.926C83.6196 225.72 80.1204 243.645 83.0254 261.571H82.7283C80.4746 252.718 79.6279 243.567 80.2194 234.452C80.7671 225.452 81.7919 216.488 83.2895 207.596C84.643 198.633 85.9635 189.736 87.0859 180.806C88.2083 171.876 89.0336 162.848 89.7599 153.852C91.1601 135.789 90.9502 117.638 89.1327 99.6132C88.5054 90.5844 87.8122 81.6215 86.9869 72.6257C86.1616 63.6298 85.1382 54.667 84.1478 45.6711L84.544 45.6052Z" fill="#1D1D1B"/>
</svg>
