<svg width="517" height="335" viewBox="0 0 517 335" fill="none" xmlns="http://www.w3.org/2000/svg">
<path d="M502.817 145.052C495.266 131.332 484.118 119.935 470.573 112.088C457.759 104.132 442.966 99.9449 427.887 100.006H425.828L305.726 120.049V99.9735H226.152V108.215H228.21C229.732 108.154 231.246 108.456 232.629 109.095C234.012 109.734 235.223 110.692 236.165 111.89C238.062 114.166 239.105 117.035 239.112 119.999L238.223 206.316H209.997V206.596C207.194 206.559 204.427 205.97 201.852 204.861C199.278 203.752 196.947 202.146 194.994 200.135C190.668 195.817 188.506 191.789 188.506 188.053V2.746H109.03V10.987H111.089C112.598 10.9677 114.091 11.3037 115.447 11.9679C116.803 12.6321 117.984 13.606 118.895 14.8108C120.82 17.0225 121.909 19.8393 121.974 22.7717V241.983C121.939 247.193 120.126 252.234 116.836 256.273C115.112 258.46 112.888 260.2 110.352 261.347C107.816 262.495 105.041 263.015 102.262 262.865C95.5758 262.865 90.5365 260.706 87.0947 256.372C83.7465 252.308 81.9232 247.2 81.9401 241.933V142.695H3.33755V150.936H5.47842C6.82788 150.934 8.15846 151.253 9.36084 151.866C10.5632 152.48 11.6031 153.37 12.395 154.463C14.1431 156.525 15.1262 159.127 15.1782 161.831V246.68C15.2444 260.905 18.9221 274.88 25.866 287.292C33.0242 300.477 43.7669 311.383 58.0942 320.009C71.5335 327.708 86.7774 331.69 102.262 331.546C116.169 331.826 129.927 328.637 142.296 322.267C153.443 316.43 163.187 308.236 170.852 298.252C178.114 288.828 183.325 277.986 186.151 266.426C193.788 269.248 201.855 270.731 209.997 270.81H426.668C442.476 271.11 458.04 266.884 471.528 258.63C483.931 251.124 494.374 240.774 501.994 228.434C509.394 215.511 513.363 200.905 513.521 186.01C513.432 171.676 509.751 157.594 502.817 145.052ZM441.72 199.558C438.196 204.09 433.19 206.332 426.718 206.332H305.677V186.9C307.765 186.677 309.83 186.281 311.852 185.713C315.772 185.12 318.621 184.642 320.399 184.246C334.331 181.499 348.165 178.846 361.899 176.285C376.797 173.373 391.931 170.528 407.302 167.748C413.898 166.184 420.579 165.001 427.311 164.204H427.903C430.624 164.111 433.325 164.695 435.765 165.903C438.205 167.111 440.308 168.906 441.885 171.126C445.092 175.097 446.904 180.015 447.039 185.12C446.963 190.407 445.067 195.507 441.671 199.558H441.72Z" fill="#B1C5CD" stroke="black" stroke-width="5" stroke-miterlimit="10"/>
<path d="M289.62 146.074C291.975 148.711 296.208 148.183 299.649 147.425L313.384 144.442C315.821 143.898 322.343 142.151 321.618 138.41C321.058 135.229 315.558 135.97 312.972 135.937C304.03 135.838 295.318 138.69 289.62 146.074Z" fill="white"/>
<path d="M379.306 121.103C394.276 117.807 409.509 114.626 424.824 115.45C440.139 116.274 455.784 121.516 466.258 132.723C468.959 135.608 471.347 139.909 469.305 143.288C466.801 147.376 460.626 146.008 456.13 144.343C426.299 133.427 393.749 132.416 363.299 141.459C356.712 143.42 350.124 145.859 343.323 145.019C331.795 143.585 325.686 131.701 339.173 128.356C352.265 125.109 366.131 124.12 379.306 121.103Z" fill="white"/>
<path d="M129.303 47.709L128.71 139.712C132.415 140.915 136.499 138.278 138.278 134.767C140.056 131.256 140.089 127.202 140.106 123.23V49.3078C140.106 42.1545 140.979 33.518 147.385 30.3369C152.803 27.6504 160.889 27.0405 158.517 18.4864C157.019 13.1297 152.375 12.4539 147.582 13.7066C131.938 17.9095 129.385 33.8806 129.303 47.709Z" fill="white"/>
<path d="M40.7038 161.402C36.1751 163.182 31.5969 165.523 28.7809 169.511C26.3436 172.972 25.4873 177.274 24.6803 181.444L21.3867 198.305C20.6441 200.991 20.5425 203.814 21.0902 206.546C21.8478 209.2 24.2851 211.491 27.0188 211.293C31.0535 210.865 32.4039 205.689 32.5521 201.618C32.4612 196.552 32.8693 191.49 33.7707 186.504C34.94 181.56 37.6243 176.747 42.0048 174.307C45.4302 172.445 49.4649 172.181 53.3514 171.736C58.7859 171.11 71.4664 166.627 64.7803 159.441C59.4281 153.507 46.55 159.111 40.7038 161.402Z" fill="white"/>
<path d="M478.428 225.089C443.845 244.175 291.498 255.251 185.607 237.285H183.96C180.947 236.774 178.493 237.055 177.373 239.889C170.177 257.245 147.731 282.743 138.574 289.517C96.0699 321.245 43.24 291.824 20.1022 244.076C19.2458 242.296 18.8177 241.258 18.8177 241.258C18.8177 255.201 19.4105 271.008 26.5742 284.111C33.7378 297.214 44.4915 308.158 58.8188 316.811C72.2502 324.515 87.4901 328.497 102.97 328.349C116.878 328.631 130.636 325.442 143.004 319.069C154.157 313.243 163.904 305.047 171.56 295.055C178.827 285.637 184.044 274.801 186.875 263.245C194.786 266.159 203.148 267.655 211.578 267.662H428.957C449.277 267.966 469.028 260.946 484.603 247.883C484.603 247.883 506.358 229.852 510.129 194.514C510.063 194.547 495.538 215.644 478.428 225.089Z" fill="#2D5B71"/>
</svg>
