<svg width="184" height="280" viewBox="0 0 184 280" fill="none" xmlns="http://www.w3.org/2000/svg">
<path d="M47.0322 275.142V276.609H37.3161V199.144H92.1056C96.8361 199.278 101.448 197.651 105.05 194.578C108.517 191.625 111.156 187.819 112.707 183.535C106.662 185.094 100.44 185.858 94.1971 185.81C75.1599 185.81 58.8179 181.733 45.1713 173.58C32.1132 165.992 21.3124 155.057 13.8818 141.902C6.74191 129.434 2.98363 115.314 2.97986 100.944C3.1408 86.9802 6.73219 73.2707 13.4372 61.0243C20.4822 47.7077 30.7536 36.3735 43.3104 28.0602C56.2763 19.2698 71.8773 14.9021 90.113 14.957H160.778C166.663 14.957 169.995 11.6167 170.774 4.93594V3.17238H180.787V99.2132C180.787 123.387 180.688 147.742 180.49 172.278C180.338 188.109 176.143 203.638 168.304 217.389C160.243 231.191 149.05 242.901 135.631 251.573C129.494 255.58 122.723 258.517 115.606 260.259C109.117 261.743 89.5695 264.94 81.7307 265.533C81.7801 265.533 70.3841 266.572 47.0322 275.142ZM113.959 98.6528V79.5171H90.0306C87.151 79.3754 84.2786 79.9148 81.6462 81.0918C79.0139 82.2687 76.6959 84.05 74.88 86.2913C71.3916 90.4041 69.4618 95.615 69.429 101.01C69.5463 106.231 71.5941 111.222 75.1764 115.019C76.9957 117.159 79.2722 118.863 81.8375 120.004C84.4029 121.145 87.1916 121.695 89.9977 121.612H94.1971C96.688 121.679 99.1439 121.014 101.262 119.7C103.383 118.285 105.353 116.656 107.141 114.838C109.356 112.776 111.108 110.267 112.283 107.477C113.458 104.687 114.03 101.68 113.959 98.6528Z" fill="#B1C5CD" stroke="black" stroke-width="5" stroke-miterlimit="10"/>
<path d="M178.185 169.179C178.185 169.179 179.239 252.265 97.5895 260.671C97.5895 260.671 63.1875 263.836 42.0917 273.857H40.132V243.035C40.132 243.035 145.215 246.563 176.917 152.664L178.185 169.179Z" fill="#2D5B71"/>
<path d="M13.8159 84.6431C11.7574 90.8568 10.6541 98.3396 14.7711 103.416C18.5917 108.113 25.8706 108.872 31.371 106.366C36.8713 103.861 40.8073 98.7846 43.5574 93.395C46.3076 88.0054 48.0862 82.1708 50.6717 76.6987C57.6279 62.1811 69.8638 50.8724 84.8761 45.0862C87.9288 44.1639 90.8385 42.8215 93.5219 41.0975C96.0745 39.1856 97.9848 35.9881 97.3096 32.8565C96.2556 28.0602 90.2612 26.4121 85.3702 26.478C70.0054 26.6758 53.8994 36.0705 41.9765 45.284C28.9107 55.3313 19.1117 69.0271 13.8159 84.6431Z" fill="white"/>
<path d="M109.529 31.7852C107.941 31.8151 106.374 32.1567 104.918 32.7906C104.135 33.0687 103.468 33.6021 103.024 34.3051C102.581 35.0081 102.386 35.84 102.471 36.6671C102.557 37.4942 102.918 38.2685 103.496 38.8658C104.074 39.463 104.836 39.8485 105.659 39.9603C107.289 40.296 108.97 40.296 110.599 39.9603C113.218 39.6141 116.446 38.6911 116.841 36.0705C116.874 35.0518 116.542 34.0547 115.905 33.2597C115.267 32.4647 114.367 31.9241 113.366 31.7357C111.354 31.4229 109.295 31.6097 107.372 32.2797" fill="white"/>
</svg>
