<svg width="1315" height="915" viewBox="0 0 1315 915" fill="none" xmlns="http://www.w3.org/2000/svg">
<path d="M1015.03 493.142V494.609H1005.32V417.144H1060.11C1064.84 417.278 1069.45 415.651 1073.05 412.578C1076.52 409.625 1079.16 405.819 1080.71 401.535C1074.66 403.094 1068.44 403.858 1062.2 403.81C1043.16 403.81 1026.82 399.733 1013.17 391.58C1000.11 383.992 989.312 373.057 981.882 359.902C974.742 347.434 970.984 333.314 970.98 318.944C971.141 304.98 974.732 291.271 981.437 279.024C988.482 265.708 998.754 254.373 1011.31 246.06C1024.28 237.27 1039.88 232.902 1058.11 232.957H1128.78C1134.66 232.957 1137.99 229.617 1138.77 222.936V221.172H1148.79V317.213C1148.79 341.387 1148.69 365.742 1148.49 390.278C1148.34 406.109 1144.14 421.638 1136.3 435.389C1128.24 449.191 1117.05 460.901 1103.63 469.573C1097.49 473.58 1090.72 476.517 1083.61 478.259C1077.12 479.743 1057.57 482.94 1049.73 483.533C1049.78 483.533 1038.38 484.572 1015.03 493.142ZM1081.96 316.653V297.517H1058.03C1055.15 297.375 1052.28 297.915 1049.65 299.092C1047.01 300.269 1044.7 302.05 1042.88 304.291C1039.39 308.404 1037.46 313.615 1037.43 319.01C1037.55 324.231 1039.59 329.222 1043.18 333.019C1045 335.159 1047.27 336.863 1049.84 338.004C1052.4 339.145 1055.19 339.695 1058 339.612H1062.2C1064.69 339.679 1067.14 339.014 1069.26 337.7C1071.38 336.285 1073.35 334.656 1075.14 332.838C1077.36 330.776 1079.11 328.267 1080.28 325.477C1081.46 322.687 1082.03 319.68 1081.96 316.653Z" fill="#B1C5CD" stroke="black" stroke-width="5" stroke-miterlimit="10"/>
<path d="M1146.18 387.179C1146.18 387.179 1147.24 470.265 1065.59 478.671C1065.59 478.671 1031.19 481.836 1010.09 491.857H1008.13V461.035C1008.13 461.035 1113.22 464.563 1144.92 370.664L1146.18 387.179Z" fill="#2D5B71"/>
<path d="M981.816 302.643C979.757 308.857 978.654 316.34 982.771 321.416C986.592 326.113 993.871 326.872 999.371 324.366C1004.87 321.861 1008.81 316.785 1011.56 311.395C1014.31 306.005 1016.09 300.171 1018.67 294.699C1025.63 280.181 1037.86 268.872 1052.88 263.086C1055.93 262.164 1058.84 260.821 1061.52 259.098C1064.07 257.186 1065.98 253.988 1065.31 250.857C1064.26 246.06 1058.26 244.412 1053.37 244.478C1038.01 244.676 1021.9 254.071 1009.98 263.284C996.911 273.331 987.112 287.027 981.816 302.643Z" fill="white"/>
<path d="M1077.53 249.785C1075.94 249.815 1074.37 250.157 1072.92 250.791C1072.13 251.069 1071.47 251.602 1071.02 252.305C1070.58 253.008 1070.39 253.84 1070.47 254.667C1070.56 255.494 1070.92 256.269 1071.5 256.866C1072.07 257.463 1072.84 257.848 1073.66 257.96C1075.29 258.296 1076.97 258.296 1078.6 257.96C1081.22 257.614 1084.45 256.691 1084.84 254.07C1084.87 253.052 1084.54 252.055 1083.9 251.26C1083.27 250.465 1082.37 249.924 1081.37 249.736C1079.35 249.423 1077.3 249.61 1075.37 250.28" fill="white"/>
<path d="M861.664 130.67V138.911H863.723C865.175 138.927 866.603 139.281 867.895 139.945C869.186 140.608 870.306 141.563 871.166 142.734C873.101 144.941 874.197 147.76 874.262 150.695V576.64C874.201 582.33 872.229 587.833 868.663 592.265C864.941 597.177 859.644 599.633 852.771 599.633H833.998L803.367 600.226L798.657 599.633C797.551 599.665 796.445 599.566 795.363 599.336C794.473 599.304 793.587 599.205 792.712 599.039C787.696 597.684 783.382 594.473 780.641 590.057C778.022 586.067 776.594 581.413 776.524 576.64V492.384H697.081V500.625H699.156C700.617 500.63 702.057 500.979 703.358 501.643C704.66 502.307 705.787 503.269 706.649 504.449C708.602 506.654 709.71 509.481 709.778 512.426V576.706C709.717 582.396 707.745 587.899 704.179 592.331C700.457 597.243 695.16 599.699 688.287 599.699H670.255C669.066 599.756 667.876 599.657 666.714 599.402C665.716 599.323 664.732 599.124 663.783 598.809C658.826 597.497 654.56 594.336 651.86 589.974C649.311 586.014 647.93 581.416 647.874 576.706C647.695 562.765 643.837 549.118 636.692 537.149C629.057 523.91 618.102 512.894 604.909 505.191C592.096 497.231 577.303 493.044 562.223 493.109H560.148L440.046 513.135V492.978H360.653V501.219H362.711C364.232 501.163 365.744 501.469 367.123 502.11C368.503 502.752 369.711 503.712 370.649 504.911C372.547 507.18 373.59 510.044 373.597 513.003L372.708 599.336H344.415V599.765L343.361 599.633C340.46 599.662 337.582 599.103 334.902 597.99C332.222 596.877 329.794 595.232 327.766 593.155C323.451 588.837 321.294 584.799 321.294 581.074V395.75H241.802V403.991H243.861C245.372 403.972 246.866 404.31 248.222 404.978C249.578 405.645 250.758 406.622 251.667 407.831C253.596 410.035 254.692 412.846 254.763 415.776V634.987C254.721 640.199 252.903 645.24 249.608 649.277C247.882 651.461 245.658 653.2 243.122 654.348C240.586 655.495 237.813 656.017 235.034 655.869C228.359 655.869 223.303 653.71 219.867 649.392C216.529 645.323 214.712 640.218 214.728 634.954V535.666H136.126V543.907H138.184C139.536 543.906 140.868 544.227 142.07 544.843C143.273 545.459 144.312 546.353 145.101 547.451C146.854 549.511 147.843 552.113 147.901 554.818V639.668C147.979 653.913 151.674 667.905 158.638 680.329C165.807 693.514 176.555 704.414 190.883 713.029C204.314 720.733 219.554 724.715 235.034 724.567C248.922 724.851 262.663 721.673 275.018 715.32C286.172 709.494 295.918 701.298 303.574 691.306C310.841 681.888 316.058 671.052 318.89 659.495C326.8 662.41 335.162 663.906 343.592 663.913H560.972C581.291 664.217 601.042 657.197 616.618 644.134C624.218 649.839 632.521 654.542 641.32 658.127C650.193 661.838 659.7 663.791 669.316 663.88H689.638C699.9 663.979 710.087 662.128 719.659 658.424C728.677 654.927 736.964 649.779 744.098 643.244C751.664 649.442 760.155 654.414 769.261 657.979C778.665 661.857 788.734 663.861 798.904 663.88H854.253C871.534 663.88 886.696 659.265 899.739 650.035C912.439 641.197 922.877 629.485 930.205 615.851C937.462 602.303 941.096 589.238 941.107 576.657V130.67H861.664ZM576.106 592.562C574.323 594.807 572.03 596.593 569.417 597.771C566.805 598.95 563.949 599.486 561.087 599.336H440.095V579.887C442.182 579.663 444.247 579.272 446.271 578.717C450.201 578.124 453.05 577.629 454.818 577.234C468.75 574.487 482.583 571.839 496.318 569.289C511.238 566.345 526.35 563.493 541.655 560.735C548.257 559.177 554.943 557.999 561.68 557.208H562.273C564.993 557.115 567.694 557.699 570.134 558.907C572.574 560.115 574.677 561.91 576.254 564.13C579.451 568.107 581.255 573.022 581.392 578.124C581.331 583.4 579.466 588.496 576.106 592.562Z" fill="#B1C5CD" stroke="black" stroke-width="5" stroke-miterlimit="10"/>
<path d="M885.263 307.373C884.522 310.966 883.616 314.658 884.193 318.284C884.769 321.911 887.486 325.487 891.208 325.718C892.784 325.689 894.319 325.207 895.629 324.331C896.94 323.454 897.972 322.219 898.602 320.773C899.801 317.844 900.416 314.709 900.414 311.543L906.013 222.936C906.672 212.651 907.281 202.086 904.119 192.279C902.373 186.89 893.794 171.001 886.004 173.737C879.417 176.061 880.767 196.812 880.784 202.399C880.784 224.947 885.527 247.132 887.042 269.58C888.15 282.201 887.552 294.913 885.263 307.373Z" fill="white"/>
<path d="M887.503 350.902C886.959 354.067 886.86 358.171 889.759 359.556C890.579 359.895 891.479 359.994 892.353 359.843C893.227 359.691 894.041 359.294 894.699 358.698C896.006 357.506 896.93 355.951 897.351 354.232C898.998 348.958 897.137 336.81 890.319 336.25C888.688 340.799 888.326 346.123 887.503 350.902Z" fill="white"/>
<path d="M778.945 437.268C773.529 434.563 767.304 433.964 761.472 435.587C755.641 437.209 750.618 440.939 747.375 446.053C746.944 446.861 746.389 447.595 745.728 448.229C745.39 448.539 744.969 448.746 744.517 448.825C744.065 448.904 743.599 448.851 743.176 448.674C741.792 447.932 742.072 445.872 742.665 444.405C744.991 438.802 749.146 434.154 754.453 431.22C759.759 428.286 765.903 427.24 771.88 428.253C771.962 428.253 771.139 428.599 771.205 428.599C773.148 428.373 775.118 428.657 776.919 429.423C778.039 430.027 778.918 430.999 779.406 432.175C779.883 433.362 779.949 436.428 778.945 437.268Z" fill="white"/>
<path d="M717.584 437.268C712.169 434.563 705.943 433.964 700.112 435.587C694.281 437.209 689.258 440.939 686.015 446.053C685.584 446.861 685.028 447.595 684.368 448.229C684.029 448.539 683.609 448.746 683.157 448.825C682.704 448.904 682.239 448.851 681.815 448.674C680.415 447.932 680.695 445.872 681.305 444.405C683.63 438.802 687.786 434.154 693.092 431.22C698.399 428.286 704.542 427.24 710.519 428.253C710.519 428.253 709.762 428.599 709.844 428.599C711.788 428.373 713.757 428.657 715.559 429.423C716.671 430.032 717.543 431.003 718.029 432.175C718.441 433.362 718.506 436.428 717.584 437.268Z" fill="white"/>
<path d="M426.196 538.105C428.568 540.759 432.784 540.215 436.225 539.457L449.96 536.474C452.414 535.946 458.935 534.183 458.194 530.441C457.634 527.26 452.134 528.002 449.548 527.985C440.622 527.887 431.927 530.721 426.196 538.105Z" fill="white"/>
<path d="M515.915 513.135C530.901 509.839 546.118 506.658 561.433 507.482C576.748 508.306 592.41 513.547 602.883 524.771C605.568 527.639 607.972 531.958 605.913 535.32C603.41 539.407 597.251 538.039 592.739 536.375C562.908 525.459 530.358 524.447 499.908 533.49C493.321 535.452 486.733 537.891 479.915 537.05C468.388 535.617 462.295 523.733 475.765 520.387C488.858 517.14 502.691 516.085 515.915 513.135Z" fill="white"/>
<path d="M263.063 436.658L262.47 528.661C266.175 529.864 270.276 527.227 272.038 523.717C273.8 520.206 273.866 516.151 273.866 512.179V438.257C273.866 431.104 274.739 422.467 281.128 419.286C286.546 416.6 294.632 415.99 292.261 407.436C290.762 402.079 286.118 401.403 281.326 402.656C265.697 406.859 263.161 422.83 263.063 436.658Z" fill="white"/>
<path d="M174.563 550.352C170.017 552.132 165.456 554.472 162.623 558.461C160.186 561.922 159.33 566.224 158.523 570.394L155.229 587.255C154.496 589.915 154.4 592.71 154.949 595.413C155.69 598.067 158.127 600.44 160.861 600.16C164.912 599.732 166.246 594.556 166.394 590.485C166.303 585.419 166.712 580.357 167.613 575.371C168.782 570.427 171.467 565.614 175.847 563.175C179.256 561.312 183.291 561.048 187.177 560.603C192.612 559.977 205.292 555.494 198.606 548.308C193.188 542.457 180.31 548.061 174.563 550.352Z" fill="white"/>
<path d="M317.836 633.025H316.189C313.175 632.514 310.705 632.795 309.602 635.613C302.405 652.985 279.959 678.466 270.803 685.257C228.298 716.985 175.468 687.564 152.331 639.816C151.474 638.019 151.046 636.998 151.046 636.998C151.046 650.941 151.639 666.665 158.803 679.851C165.966 693.036 176.72 703.898 191.047 712.551C204.479 720.255 219.719 724.237 235.198 724.089C249.035 724.33 262.716 721.136 275.018 714.793C286.172 708.966 295.918 700.77 303.574 690.778C310.841 681.36 316.058 670.525 318.89 658.968C326.8 661.883 335.162 663.378 343.592 663.385H560.972C581.291 663.69 601.042 656.67 616.618 643.607C624.218 649.312 632.521 654.015 641.32 657.6C650.193 661.31 659.7 663.264 669.316 663.352H689.638C699.9 663.452 710.087 661.601 719.659 657.897C728.705 654.435 737.027 649.315 744.197 642.799C751.763 648.997 760.254 653.969 769.36 657.534C778.763 661.412 788.832 663.416 799.003 663.435H854.352C871.633 663.435 886.794 658.82 899.837 649.59C912.537 640.752 922.975 629.04 930.303 615.406C930.666 614.73 931.028 614.055 931.374 613.362C937.941 600.12 941.325 585.524 941.255 570.74V538.435C941.255 538.435 928.986 616.527 849.231 637.031C849.231 637.031 793.025 649.244 756.054 616.28C753.764 614.258 750.824 613.127 747.771 613.094C744.718 613.061 741.754 614.127 739.421 616.098C723.331 629.531 684.253 651.732 622.826 622.378C619.039 620.565 614.592 619.197 610.656 620.829C574.146 636.206 423.693 651.04 317.836 633.025Z" fill="#2D5B71"/>
<path d="M790.258 431.829C784.681 425.039 776.584 421.649 765.968 421.66C759.349 421.437 752.822 423.261 747.276 426.885C742.435 430.121 738.609 434.664 736.243 439.988C733.701 434.687 729.789 430.163 724.912 426.885C719.358 423.287 712.833 421.485 706.221 421.726C695.813 421.726 687.766 425.116 682.079 431.895C676.723 437.825 673.693 445.495 673.548 453.487C673.548 460.761 676.397 467.903 682.095 474.913C687.793 481.924 695.841 485.412 706.238 485.379C712.892 485.62 719.447 483.707 724.929 479.924C729.775 476.485 733.672 471.876 736.259 466.524C738.668 471.901 742.479 476.53 747.293 479.924C752.774 483.709 759.329 485.622 765.984 485.379C776.392 485.379 784.439 481.94 790.126 475.062C795.813 468.183 798.673 460.991 798.706 453.487C798.57 445.488 795.573 437.804 790.258 431.829Z" fill="#B1C5CD" stroke="black" stroke-width="5" stroke-miterlimit="10"/>
<path d="M844.817 278.052C837.266 264.332 826.118 252.935 812.573 245.088C799.759 237.132 784.966 232.945 769.887 233.006H767.828L647.726 253.049V232.974H568.152V241.215H570.21C571.732 241.154 573.246 241.456 574.629 242.095C576.012 242.734 577.223 243.692 578.165 244.89C580.062 247.166 581.105 250.035 581.112 252.999L580.223 339.316H551.997V339.596C549.194 339.559 546.427 338.97 543.852 337.861C541.278 336.752 538.947 335.146 536.994 333.135C532.668 328.817 530.506 324.789 530.506 321.053V135.746H451.03V143.987H453.089C454.598 143.968 456.091 144.304 457.447 144.968C458.803 145.632 459.984 146.606 460.895 147.811C462.82 150.022 463.909 152.839 463.974 155.772V374.983C463.939 380.193 462.126 385.234 458.836 389.273C457.112 391.46 454.888 393.2 452.352 394.347C449.816 395.495 447.041 396.015 444.262 395.865C437.576 395.865 432.537 393.706 429.095 389.372C425.747 385.308 423.923 380.2 423.94 374.933V275.695H345.338V283.936H347.478C348.828 283.934 350.158 284.253 351.361 284.866C352.563 285.48 353.603 286.37 354.395 287.463C356.143 289.525 357.126 292.127 357.178 294.831V379.68C357.244 393.905 360.922 407.88 367.866 420.292C375.024 433.477 385.767 444.383 400.094 453.009C413.533 460.708 428.777 464.69 444.262 464.546C458.169 464.826 471.927 461.637 484.296 455.267C495.443 449.43 505.187 441.236 512.852 431.252C520.114 421.828 525.325 410.986 528.151 399.426C535.788 402.248 543.855 403.731 551.997 403.81H768.668C784.476 404.11 800.04 399.884 813.528 391.63C825.931 384.124 836.374 373.774 843.994 361.434C851.394 348.511 855.363 333.905 855.521 319.01C855.432 304.676 851.751 290.594 844.817 278.052ZM783.72 332.558C780.196 337.09 775.19 339.332 768.718 339.332H647.677V319.9C649.765 319.677 651.83 319.281 653.852 318.713C657.772 318.12 660.621 317.642 662.399 317.246C676.331 314.499 690.165 311.846 703.899 309.285C718.797 306.373 733.931 303.528 749.302 300.748C755.898 299.184 762.579 298.001 769.311 297.204H769.903C772.624 297.111 775.325 297.695 777.765 298.903C780.205 300.111 782.308 301.906 783.885 304.126C787.092 308.097 788.904 313.015 789.039 318.12C788.963 323.407 787.067 328.507 783.671 332.558H783.72Z" fill="#B1C5CD" stroke="black" stroke-width="5" stroke-miterlimit="10"/>
<path d="M631.62 279.074C633.975 281.711 638.208 281.183 641.649 280.425L655.384 277.442C657.821 276.898 664.343 275.151 663.618 271.41C663.058 268.229 657.558 268.97 654.972 268.937C646.03 268.838 637.318 271.69 631.62 279.074Z" fill="white"/>
<path d="M721.306 254.103C736.276 250.807 751.509 247.626 766.824 248.45C782.139 249.274 797.784 254.516 808.258 265.723C810.959 268.608 813.347 272.909 811.305 276.288C808.801 280.376 802.626 279.008 798.13 277.343C768.299 266.427 735.749 265.416 705.299 274.459C698.712 276.42 692.124 278.859 685.323 278.019C673.795 276.585 667.686 264.701 681.173 261.356C694.265 258.109 708.131 257.12 721.306 254.103Z" fill="white"/>
<path d="M471.303 180.709L470.71 272.712C474.415 273.915 478.499 271.278 480.278 267.767C482.056 264.256 482.089 260.202 482.106 256.23V182.308C482.106 175.155 482.979 166.518 489.385 163.337C494.803 160.65 502.889 160.041 500.517 151.486C499.019 146.13 494.375 145.454 489.582 146.707C473.938 150.909 471.385 166.881 471.303 180.709Z" fill="white"/>
<path d="M382.704 294.402C378.175 296.182 373.597 298.523 370.781 302.511C368.344 305.972 367.487 310.274 366.68 314.444L363.387 331.305C362.644 333.991 362.543 336.814 363.09 339.546C363.848 342.2 366.285 344.491 369.019 344.293C373.053 343.865 374.404 338.689 374.552 334.618C374.461 329.552 374.869 324.49 375.771 319.504C376.94 314.56 379.624 309.747 384.005 307.307C387.43 305.445 391.465 305.181 395.351 304.736C400.786 304.11 413.466 299.627 406.78 292.441C401.428 286.507 388.55 292.111 382.704 294.402Z" fill="white"/>
<path d="M820.428 358.089C785.845 377.175 633.498 388.251 527.607 370.285H525.96C522.947 369.774 520.493 370.055 519.373 372.889C512.177 390.245 489.731 415.743 480.574 422.517C438.07 454.245 385.24 424.824 362.102 377.076C361.246 375.296 360.818 374.258 360.818 374.258C360.818 388.201 361.41 404.008 368.574 417.111C375.738 430.214 386.492 441.158 400.819 449.811C414.25 457.515 429.49 461.497 444.97 461.349C458.878 461.631 472.636 458.442 485.004 452.069C496.157 446.243 505.904 438.047 513.56 428.055C520.827 418.637 526.044 407.801 528.875 396.245C536.786 399.159 545.148 400.655 553.578 400.662H770.957C791.277 400.966 811.028 393.946 826.603 380.883C826.603 380.883 848.358 362.852 852.129 327.514C852.063 327.547 837.538 348.644 820.428 358.089Z" fill="#2D5B71"/>
</svg>
