<svg width="490" height="174" viewBox="0 0 490 174" fill="none" xmlns="http://www.w3.org/2000/svg">
<path d="M83.3898 116.418C83.3794 117.416 83.3099 118.413 83.1818 119.403C83.1177 120.064 82.9781 120.715 82.7659 121.343C82.6438 121.775 82.3954 122.16 82.0529 122.448C81.78 122.682 81.4317 122.81 81.0726 122.806H47.5325C46.9159 122.858 46.2956 122.769 45.7182 122.546C45.1407 122.323 44.6209 121.971 44.198 121.517C43.775 121.063 43.4597 120.519 43.2757 119.926C43.0918 119.332 43.0439 118.704 43.1357 118.09V51.0448C43.1356 50.6664 43.2611 50.2988 43.4922 50C43.8212 49.6484 44.2441 49.3997 44.7103 49.2836C45.4534 49.0421 46.2204 48.882 46.9977 48.806C47.9781 48.806 49.1664 48.6567 50.5924 48.6567C52.0184 48.6567 53.2958 48.6567 54.2167 48.806C54.9941 48.882 55.7611 49.0421 56.5042 49.2836C56.9704 49.3997 57.3933 49.6484 57.7223 50C57.9534 50.2988 58.0788 50.6664 58.0787 51.0448V110.448H81.1617C81.5122 110.437 81.8565 110.542 82.142 110.746C82.4774 111.016 82.7256 111.38 82.855 111.791C83.0204 112.325 83.1299 112.876 83.1818 113.433C83.3099 114.423 83.3794 115.42 83.3898 116.418Z" fill="#FCF3D7" stroke="#1D1D1B" stroke-width="0.66" stroke-miterlimit="10"/>
<path d="M138.022 93.8508C138.139 95.2451 137.725 96.632 136.864 97.7314C136.449 98.1584 135.948 98.4912 135.395 98.7075C134.841 98.9237 134.248 99.0184 133.655 98.9851H102.878C102.853 101.002 103.113 103.012 103.65 104.955C104.11 106.616 104.944 108.147 106.086 109.433C107.254 110.771 108.734 111.797 110.394 112.418C112.431 113.11 114.573 113.433 116.722 113.373C118.922 113.398 121.12 113.218 123.287 112.836C124.945 112.543 126.582 112.144 128.189 111.642C129.585 111.224 130.714 110.806 131.635 110.448C132.329 110.136 133.074 109.954 133.834 109.91C134.135 109.894 134.434 109.967 134.695 110.119C134.948 110.285 135.145 110.525 135.259 110.806C135.428 111.277 135.528 111.769 135.557 112.269C135.557 112.896 135.557 113.702 135.557 114.627C135.557 115.552 135.557 116.179 135.557 116.776C135.557 117.373 135.557 117.851 135.557 118.269C135.483 118.64 135.363 119.001 135.2 119.343C135.031 119.633 134.832 119.903 134.606 120.149C133.996 120.624 133.314 120.997 132.586 121.254C131.222 121.79 129.822 122.229 128.397 122.567C126.439 123.063 124.455 123.451 122.455 123.731C120.122 124.049 117.77 124.209 115.415 124.209C111.388 124.287 107.376 123.713 103.532 122.507C100.318 121.417 97.4137 119.563 95.0649 117.105C92.7137 114.617 90.9741 111.612 89.9848 108.328C88.8124 104.297 88.2515 100.11 88.3212 95.9105C88.2771 91.7309 88.8887 87.5704 90.1334 83.5821C91.2141 80.2795 92.9527 77.2326 95.2431 74.6269C97.4568 72.0271 100.244 69.9828 103.383 68.6567C110.362 66.0705 118.031 66.0705 125.01 68.6567C127.852 69.7863 130.387 71.5765 132.408 73.8806C134.363 76.1417 135.812 78.7987 136.656 81.6717C137.571 84.8939 138.021 88.2314 137.993 91.5821L138.022 93.8508ZM124.208 89.7612C124.514 86.4227 123.664 83.0806 121.802 80.2985C120.852 79.1185 119.631 78.1871 118.244 77.5841C116.858 76.9811 115.347 76.7244 113.84 76.8359C112.2 76.8064 110.574 77.1535 109.087 77.8508C107.787 78.5046 106.65 79.4431 105.76 80.597C104.839 81.8261 104.144 83.2112 103.71 84.6866C103.228 86.3276 102.949 88.0219 102.878 89.7314L124.208 89.7612Z" fill="#FCF3D7" stroke="#1D1D1B" stroke-width="0.66" stroke-miterlimit="10"/>
<path d="M195.745 69.8806C195.745 70.0895 195.745 70.2985 195.745 70.5671C195.745 70.8358 195.745 71.1343 195.745 71.4627C195.745 71.791 195.745 72.1492 195.507 72.5671C195.269 72.985 195.299 73.4627 195.15 74L179.791 119.94C179.641 120.508 179.389 121.044 179.049 121.522C178.617 121.984 178.059 122.306 177.445 122.448C176.476 122.72 175.479 122.881 174.474 122.925C173.226 122.925 171.503 122.925 169.513 122.925C167.522 122.925 165.888 122.925 164.611 122.925C163.606 122.861 162.61 122.691 161.64 122.418C161.042 122.277 160.503 121.954 160.095 121.493C159.733 121.046 159.47 120.527 159.323 119.97L144.083 74L143.548 71.9403C143.445 71.5085 143.375 71.0694 143.34 70.6268C143.326 70.3783 143.326 70.1291 143.34 69.8806C143.329 69.5284 143.434 69.1824 143.637 68.8955C143.924 68.5514 144.307 68.3018 144.736 68.1791C145.45 67.9577 146.189 67.8273 146.935 67.791C147.856 67.791 149.014 67.791 150.41 67.791C151.807 67.791 153.203 67.791 154.154 67.791C154.917 67.8431 155.674 67.9731 156.411 68.1791C156.866 68.3006 157.271 68.5615 157.57 68.9253C157.805 69.2887 157.995 69.6797 158.134 70.0895L169.602 107.463L169.928 108.866L170.285 107.463L181.633 70.1492C181.713 69.7227 181.897 69.3228 182.168 68.9851C182.468 68.6212 182.873 68.3603 183.327 68.2388C184.014 68.0337 184.721 67.9036 185.436 67.8507C186.327 67.8507 187.486 67.8507 188.941 67.8507C190.397 67.8507 191.467 67.8507 192.358 67.8507C193.065 67.8855 193.765 68.016 194.437 68.2388C194.843 68.3599 195.198 68.6116 195.447 68.9552C195.628 69.2309 195.731 69.5508 195.745 69.8806Z" fill="#FCF3D7" stroke="#1D1D1B" stroke-width="0.66" stroke-miterlimit="10"/>
<path d="M249.753 93.8508C249.87 95.2451 249.456 96.632 248.595 97.7314C248.18 98.1584 247.679 98.4912 247.126 98.7074C246.572 98.9237 245.979 99.0184 245.386 98.9851H214.609C214.584 101.002 214.844 103.012 215.381 104.955C215.829 106.62 216.664 108.155 217.817 109.433C218.979 110.778 220.461 111.805 222.125 112.418C224.152 113.107 226.284 113.431 228.423 113.373C230.633 113.397 232.841 113.217 235.018 112.836C236.674 112.536 238.311 112.137 239.92 111.642C241.287 111.224 242.445 110.806 243.336 110.448C244.042 110.139 244.796 109.957 245.564 109.91C245.856 109.895 246.146 109.967 246.396 110.119C246.657 110.277 246.856 110.519 246.961 110.806C247.141 111.275 247.251 111.768 247.288 112.269C247.288 112.896 247.288 113.702 247.288 114.627C247.288 115.552 247.288 116.179 247.288 116.776C247.268 117.278 247.209 117.777 247.109 118.269C247.059 118.642 246.948 119.005 246.782 119.343C246.614 119.633 246.415 119.903 246.188 120.149C245.574 120.618 244.893 120.99 244.168 121.254C242.805 121.79 241.405 122.229 239.979 122.567C238.021 123.061 236.038 123.45 234.038 123.731C231.714 124.049 229.372 124.209 227.027 124.209C223 124.289 218.988 123.715 215.144 122.507C211.909 121.492 208.977 119.683 206.612 117.244C204.247 114.805 202.523 111.813 201.597 108.537C200.398 104.511 199.826 100.322 199.904 96.1194C199.916 91.8522 200.629 87.6163 202.013 83.5821C203.028 80.2888 204.707 77.2405 206.944 74.6269C209.164 72.0335 211.95 69.9904 215.084 68.6567C222.074 66.071 229.752 66.071 236.741 68.6567C239.575 69.8019 242.106 71.5898 244.139 73.8806C246.114 76.1617 247.564 78.8525 248.387 81.7612C249.326 84.9789 249.787 88.3185 249.753 91.6716V93.8508ZM235.909 89.7612C236.215 86.4227 235.365 83.0805 233.503 80.2985C232.554 79.1165 231.334 78.1838 229.947 77.5806C228.56 76.9774 227.048 76.7218 225.541 76.8358C223.91 76.8056 222.294 77.1529 220.818 77.8508C219.509 78.5034 218.362 79.4417 217.461 80.597C216.538 81.8204 215.852 83.2079 215.441 84.6866C214.946 86.3245 214.666 88.0205 214.609 89.7314L235.909 89.7612Z" fill="#FCF3D7" stroke="#1D1D1B" stroke-width="0.66" stroke-miterlimit="10"/>
<path d="M275.777 120.746C275.787 121.108 275.659 121.46 275.421 121.731C275.11 122.076 274.708 122.324 274.262 122.448C273.558 122.676 272.83 122.826 272.094 122.895C271.173 122.895 270.014 122.895 268.618 122.895C267.221 122.895 266.063 122.895 265.172 122.895C264.425 122.825 263.688 122.675 262.973 122.448C262.527 122.324 262.125 122.076 261.815 121.731C261.596 121.45 261.481 121.103 261.488 120.746V45.8507C261.488 45.4863 261.602 45.1311 261.815 44.8358C262.128 44.4809 262.527 44.2135 262.973 44.0597C263.686 43.8201 264.424 43.66 265.172 43.5821C266.315 43.4489 267.466 43.3891 268.618 43.403C269.779 43.3901 270.94 43.45 272.094 43.5821C272.832 43.6595 273.559 43.8197 274.262 44.0597C274.709 44.2135 275.108 44.4809 275.421 44.8358C275.656 45.1206 275.783 45.4805 275.777 45.8507V120.746Z" fill="#FCF3D7" stroke="#1D1D1B" stroke-width="0.66" stroke-miterlimit="10"/>
<path d="M364.188 120.746C364.203 121.099 364.098 121.447 363.89 121.731C363.653 122.074 363.308 122.327 362.91 122.448C362.307 122.673 361.678 122.824 361.039 122.896C360.049 122.951 359.057 122.951 358.068 122.896C357.078 122.948 356.087 122.948 355.097 122.896C354.466 122.828 353.847 122.677 353.255 122.448C352.861 122.319 352.518 122.068 352.275 121.731C352.089 121.437 351.996 121.094 352.007 120.746V114.776C349.582 117.535 346.697 119.849 343.481 121.612C340.739 123.09 337.681 123.878 334.569 123.91C331.508 124.025 328.462 123.444 325.657 122.209C323.408 121.131 321.451 119.523 319.953 117.522C318.514 115.457 317.503 113.122 316.982 110.657C316.292 107.471 315.973 104.215 316.031 100.955V69.9403C316.031 69.5851 316.146 69.2394 316.358 68.9553C316.644 68.5965 317.042 68.3444 317.487 68.2388C318.203 68.02 318.94 67.8799 319.685 67.8209C320.606 67.8209 321.765 67.8209 323.131 67.8209C324.498 67.8209 325.686 67.8209 326.578 67.8209C327.323 67.883 328.06 68.0231 328.776 68.2388C329.222 68.3622 329.624 68.6107 329.934 68.9553C330.147 69.2394 330.261 69.5851 330.261 69.9403V98.6567C330.219 100.659 330.388 102.66 330.766 104.627C331.066 105.918 331.599 107.142 332.341 108.239C333.005 109.233 333.916 110.036 334.985 110.567C336.157 111.147 337.451 111.434 338.758 111.403C340.756 111.345 342.682 110.644 344.254 109.403C346.469 107.732 348.465 105.786 350.195 103.612V69.9403C350.184 69.5882 350.289 69.2422 350.492 68.9553C350.792 68.5978 351.198 68.3466 351.651 68.2388C352.357 68.0226 353.084 67.8825 353.82 67.8209C354.74 67.8209 355.869 67.8209 357.266 67.8209C358.662 67.8209 359.821 67.8209 360.741 67.8209C361.468 67.8789 362.185 68.0191 362.88 68.2388C363.326 68.3622 363.728 68.6107 364.039 68.9553C364.251 69.2394 364.366 69.5851 364.366 69.9403L364.188 120.746Z" fill="#FCF3D7" stroke="#1D1D1B" stroke-width="0.66" stroke-miterlimit="10"/>
<path d="M429.426 94.597C429.48 98.7233 428.99 102.839 427.97 106.836C427.142 110.155 425.712 113.292 423.752 116.09C421.97 118.623 419.592 120.674 416.83 122.06C413.885 123.482 410.649 124.188 407.383 124.119C406.015 124.126 404.651 123.986 403.313 123.702C402.081 123.392 400.886 122.952 399.748 122.388C398.546 121.755 397.403 121.016 396.331 120.179C395.095 119.256 393.914 118.259 392.796 117.194V141.075C392.812 141.451 392.696 141.82 392.469 142.119C392.156 142.474 391.757 142.742 391.311 142.896C390.613 143.1 389.896 143.231 389.172 143.284C386.879 143.483 384.573 143.483 382.28 143.284C381.532 143.206 380.794 143.046 380.081 142.806C379.635 142.652 379.236 142.385 378.923 142.03C378.696 141.731 378.58 141.361 378.596 140.985V69.9403C378.588 69.5928 378.681 69.2506 378.863 68.9552C379.118 68.6177 379.471 68.3675 379.873 68.2388C380.476 68.0182 381.106 67.8777 381.745 67.8209C382.734 67.7627 383.726 67.7627 384.716 67.8209C385.705 67.7619 386.697 67.7619 387.686 67.8209C388.325 67.8845 388.953 68.0248 389.558 68.2388C389.956 68.3596 390.301 68.6121 390.538 68.9552C390.742 69.2422 390.846 69.5882 390.835 69.9403V75.9105C392.205 74.4865 393.653 73.1411 395.173 71.8806C396.513 70.7384 397.966 69.7381 399.51 68.8955C400.955 68.123 402.492 67.5411 404.085 67.1642C405.719 66.7632 407.394 66.5627 409.076 66.5672C412.371 66.4734 415.635 67.2342 418.553 68.7761C421.135 70.2129 423.327 72.2626 424.94 74.7463C426.651 77.4969 427.867 80.528 428.535 83.7015C429.227 87.2897 429.526 90.9434 429.426 94.597ZM414.572 95.6418C414.584 93.5526 414.425 91.466 414.097 89.403C413.817 87.5507 413.267 85.75 412.463 84.0597C411.77 82.6038 410.753 81.3272 409.492 80.3284C408.095 79.3714 406.429 78.8901 404.739 78.9552C403.792 78.9446 402.849 79.0856 401.946 79.3731C400.894 79.6952 399.894 80.1677 398.975 80.7761C397.903 81.509 396.908 82.3491 396.005 83.2836C394.851 84.4813 393.77 85.7472 392.766 87.0746V103.821C394.429 106.038 396.354 108.043 398.5 109.791C400.112 111.09 402.108 111.815 404.174 111.851C405.858 111.909 407.516 111.417 408.898 110.448C410.23 109.459 411.326 108.184 412.106 106.716C412.976 105.077 413.596 103.316 413.948 101.493C414.359 99.5292 414.568 97.5286 414.572 95.5224V95.6418Z" fill="#FCF3D7" stroke="#1D1D1B" stroke-width="0.66" stroke-miterlimit="10"/>
<path d="M44.1755 96.5671C45.2866 102.042 48.2733 106.953 52.6159 110.443C56.9584 113.934 62.3817 115.784 67.9417 115.672H80.8943C81.2453 115.656 81.5911 115.761 81.8746 115.97C82.21 116.24 82.4582 116.603 82.5876 117.015C82.8006 117.623 82.9402 118.254 83.0035 118.895C83.0035 119.672 83.1521 114.657 83.1521 115.91C83.1776 116.908 83.128 117.906 83.0035 118.895C82.9394 119.556 82.7998 120.207 82.5876 120.836C82.4659 121.276 82.2179 121.67 81.8746 121.97C81.5951 122.189 81.2489 122.305 80.8943 122.298H47.8592C47.2417 122.349 46.6206 122.26 46.0421 122.037C45.4635 121.814 44.9424 121.463 44.5172 121.01C44.0921 120.557 43.7739 120.014 43.5862 119.42C43.3984 118.827 43.346 118.199 43.4328 117.582L43.9378 95.0149C43.9378 95.0149 43.9972 95.5224 44.1755 96.5671Z" fill="#D2BF95"/>
<path d="M55.6426 52.9552C56.1066 53.8762 56.2728 54.9198 56.118 55.9403L55.8506 61.9104C55.8938 62.3865 55.8426 62.8665 55.6998 63.3226C55.557 63.7786 55.3255 64.2017 55.0188 64.5672C54.4609 64.0122 54.037 63.3363 53.7795 62.5911C53.522 61.846 53.4378 61.0515 53.5334 60.2686C53.7113 58.6916 53.7113 57.0994 53.5334 55.5224C53.3848 54.6866 51.7509 52.1492 52.4045 51.4925C53.0581 50.8358 55.2267 52.2985 55.6426 52.9552Z" fill="white"/>
<path d="M106.383 115.075C108.225 115.254 113.216 115.821 115.682 115.821C117.882 115.846 120.08 115.666 122.247 115.283C123.902 114.976 125.538 114.577 127.149 114.089C128.545 113.642 129.674 113.254 130.595 112.895C131.29 112.584 132.034 112.402 132.794 112.358C133.091 112.347 133.387 112.408 133.655 112.537C133.911 112.714 134.107 112.963 134.22 113.254C134.404 113.721 134.514 114.215 134.546 114.716C134.546 115.343 134.546 116.119 134.546 117.075C134.546 118.03 134.546 115.642 134.546 116.209C134.546 116.776 134.546 117.313 134.546 117.731C134.478 118.095 134.358 118.447 134.19 118.776C134.029 119.08 133.829 119.361 133.596 119.612C132.997 120.08 132.324 120.444 131.605 120.686C130.229 121.225 128.82 121.674 127.387 122.03C125.429 122.517 123.445 122.896 121.445 123.164C119.113 123.497 116.76 123.656 114.405 123.642C110.808 123.688 107.233 123.071 103.858 121.821C100.474 120.538 97.4259 118.496 94.9459 115.851C92.7602 113.273 91.2309 110.199 90.4897 106.895C94.7822 111.258 100.352 114.124 106.383 115.075Z" fill="#D2BF95"/>
<path d="M129.971 74.1791C131.869 76.3893 133.44 78.8624 134.636 81.5224C135.152 82.3469 135.439 83.2951 135.467 84.2687C135.467 85.2239 134.546 86.209 133.596 86.0597C132.645 85.9104 132.17 84.8657 131.873 83.9701C131.337 82.1105 130.662 80.2943 129.853 78.5373C129.045 76.7723 127.757 75.2721 126.139 74.209C125.218 73.6716 120.851 72.2089 121.742 70.5373C122.634 68.8657 126.288 71.2537 127.09 71.7612C128.16 72.4253 129.13 73.2395 129.971 74.1791Z" fill="white"/>
<path d="M179.145 119.167C179.001 119.737 178.749 120.274 178.403 120.749C177.971 121.21 177.413 121.532 176.798 121.674C175.83 121.947 174.833 122.107 173.828 122.152C172.58 122.152 170.857 122.152 168.866 122.152C166.876 122.152 165.821 122.152 164.544 122.152C163.537 122.102 162.308 121.787 161.341 121.5C160.744 121.359 160.255 120.461 159.848 120C159.486 119.553 158.501 116.057 158.354 115.5L153.872 100.5C153.872 100.5 163.846 117.047 179.145 119.167Z" fill="#D2BF95"/>
<path d="M188.466 70.6268C189.318 70.4528 190.203 70.5574 190.991 70.9254C191.345 71.1862 191.632 71.528 191.829 71.9226C192.025 72.3171 192.125 72.7529 192.12 73.194C192.089 74.0837 191.908 74.9618 191.585 75.791L190.13 80.597C190.13 80.9851 189.833 81.4328 189.446 81.5224C189.06 81.6119 188.526 81.1642 188.496 80.6865C188.489 80.1991 188.601 79.7174 188.823 79.2836C189.141 78.4008 189.281 77.4631 189.236 76.5252C189.19 75.5873 188.958 74.668 188.555 73.8209C187.083 74.1244 185.553 73.9466 184.188 73.3134C183.03 72.6268 182.733 71.1343 184.188 70.7462C185.61 70.6182 187.039 70.5783 188.466 70.6268Z" fill="white"/>
<path d="M218.025 115.075C219.897 115.254 224.888 115.821 227.354 115.821C229.554 115.846 231.752 115.666 233.919 115.284C235.573 114.976 237.21 114.577 238.821 114.09C240.217 113.642 241.346 113.254 242.267 112.896C242.961 112.584 243.706 112.402 244.465 112.358C244.762 112.35 245.057 112.412 245.327 112.537C245.573 112.723 245.768 112.97 245.891 113.254C246.063 113.724 246.163 114.217 246.188 114.716C246.188 115.343 246.188 116.119 246.188 117.075C246.188 118.03 246.188 115.642 246.188 116.209C246.169 116.72 246.109 117.229 246.01 117.731C245.966 118.097 245.855 118.451 245.683 118.776C245.523 119.08 245.323 119.361 245.089 119.612C244.483 120.086 243.799 120.449 243.069 120.687C241.702 121.221 240.303 121.67 238.88 122.03C236.921 122.514 234.938 122.893 232.939 123.164C230.607 123.497 228.253 123.656 225.898 123.642C222.292 123.685 218.708 123.068 215.322 121.821C211.938 120.538 208.89 118.496 206.41 115.851C204.205 113.285 202.674 110.207 201.953 106.896C206.292 111.293 211.93 114.163 218.025 115.075Z" fill="#D2BF95"/>
<path d="M241.792 74.1791C243.72 76.3896 245.33 78.8615 246.574 81.5224C247.095 82.3429 247.374 83.2953 247.377 84.2687C247.377 85.2239 246.485 86.209 245.535 86.0597C244.584 85.9104 244.109 84.8657 243.812 83.9701C243.276 82.1105 242.601 80.2943 241.792 78.5373C240.982 76.7639 239.683 75.2615 238.048 74.209C237.157 73.6716 232.79 72.2089 233.652 70.5373C234.513 68.8657 238.227 71.2537 239.029 71.7612C240.052 72.4415 240.981 73.2544 241.792 74.1791Z" fill="white"/>
<path d="M262.498 90.597C262.498 90.597 267.934 104.478 274.886 107.463V121.343C274.886 121.343 267.073 123.522 262.498 120.955V90.597Z" fill="#D2BF95"/>
<path d="M273.312 47.3134C273.77 48.2362 273.936 49.278 273.787 50.2985L273.52 56.2686C273.578 57.2362 273.282 58.1917 272.688 58.9552C272.129 58.3944 271.705 57.7132 271.448 56.9632C271.191 56.2133 271.107 55.4143 271.202 54.6268C271.379 53.0597 271.379 51.4775 271.202 49.9104C271.202 49.0746 269.39 46.5373 270.073 45.8507C270.757 45.1641 272.925 46.6567 273.312 47.3134Z" fill="white"/>
<path d="M363.534 112.09C363.534 112.478 363.979 120.746 363.772 121.045C363.522 121.369 363.18 121.609 362.791 121.731C362.192 121.971 361.562 122.122 360.92 122.179C359.93 122.234 358.938 122.234 357.949 122.179C356.959 122.23 355.968 122.23 354.978 122.179C354.345 122.122 353.725 121.971 353.136 121.731C352.759 121.602 352.428 121.363 352.186 121.045C352.004 120.738 351.911 120.387 351.918 120.03V114.06C349.468 116.805 346.576 119.116 343.362 120.896C340.615 122.358 337.559 123.136 334.45 123.164C331.39 123.279 328.343 122.697 325.538 121.463C323.283 120.393 321.186 117.507 319.695 115.5C318.203 113.447 317.274 107.477 316.707 105C316.707 102 316.656 103.76 316.714 100.5C321.126 104.805 325.62 107.599 331.568 109.164C332.446 110.084 333.445 110.878 334.539 111.522C335.982 112.144 337.546 112.43 339.114 112.358C349.512 111.821 354.443 112.866 363.534 112.09Z" fill="#D2BF95"/>
<path d="M361.959 71.7911C362.418 72.7139 362.584 73.7557 362.435 74.7761L362.167 80.7463C362.211 81.2271 362.161 81.7118 362.018 82.1728C361.875 82.6338 361.643 83.062 361.336 83.4329C360.777 82.8721 360.353 82.1909 360.096 81.4409C359.838 80.6909 359.754 79.8919 359.85 79.1045C360.027 77.5374 360.027 75.9552 359.85 74.3881C359.85 73.5523 358.068 71.0149 358.721 70.3284C359.375 69.6418 361.544 71.1343 361.959 71.7911Z" fill="white"/>
<path d="M379.487 109.5C379.487 109.5 384.924 124.567 391.875 127.791V141.702C391.875 141.702 384.032 143.851 379.487 141.313V109.5Z" fill="#D2BF95"/>
<path d="M419.503 74.1791C421.39 76.397 422.96 78.8686 424.168 81.5224C424.689 82.3429 424.967 83.2953 424.97 84.2687C424.97 85.2239 424.078 86.209 423.128 86.0597C422.177 85.9104 421.702 84.8657 421.405 83.9701C420.869 82.1105 420.194 80.2943 419.385 78.5373C418.575 76.7639 417.276 75.2615 415.641 74.209C414.75 73.6716 410.383 72.2089 411.245 70.5373C412.106 68.8657 415.82 71.2537 416.622 71.7612C417.687 72.4328 418.656 73.2462 419.503 74.1791Z" fill="white"/>
</svg>
