<svg width="254" height="591" viewBox="0 0 254 591" fill="none" xmlns="http://www.w3.org/2000/svg">
<path d="M232.206 558.373C227.945 562.806 222.176 565.478 216.039 565.86C209.903 566.242 203.846 564.306 199.069 560.435C196.294 558.158 194.064 555.29 192.541 552.04C192.319 551.566 191.983 551.155 191.561 550.844C191.139 550.534 190.647 550.335 190.128 550.265C189.61 550.195 189.082 550.256 188.593 550.443C188.104 550.63 187.67 550.936 187.331 551.335L165.145 577.359C164.56 578.047 163.844 578.613 163.04 579.024C162.236 579.436 161.359 579.684 160.458 579.756C159.558 579.828 158.652 579.722 157.792 579.443C156.933 579.164 156.137 578.719 155.45 578.132L128.34 555.08C127.91 554.718 127.586 554.246 127.402 553.715C127.219 553.183 127.182 552.611 127.298 552.061C127.413 551.51 127.676 551.001 128.057 550.588C128.439 550.175 128.925 549.873 129.465 549.714C134.038 548.397 138.159 545.841 141.371 542.33C144.584 538.819 146.765 534.489 147.672 529.817C148.579 525.145 148.178 520.313 146.513 515.855C144.847 511.396 141.983 507.485 138.235 504.552C133.143 500.637 126.784 498.744 120.38 499.238C113.977 499.731 107.982 502.576 103.55 507.224C99.7753 511.227 97.3838 516.335 96.7273 521.797C96.6521 522.356 96.4272 522.884 96.0763 523.325C95.7254 523.767 95.2616 524.105 94.7341 524.304C94.2067 524.503 93.6351 524.556 93.0801 524.457C92.5251 524.357 92.0072 524.11 91.5815 523.74L65.2614 501.298C64.5745 500.712 64.0098 499.998 63.5997 499.194C63.1896 498.39 62.9422 497.513 62.8717 496.614C62.8012 495.714 62.9089 494.81 63.1887 493.952C63.4685 493.094 63.9149 492.3 64.5022 491.615L86.9894 465.223C87.3371 464.821 87.5759 464.336 87.6831 463.816C87.7903 463.295 87.7624 462.755 87.602 462.249C87.4415 461.742 87.1539 461.285 86.7665 460.921C86.3792 460.556 85.9051 460.298 85.3893 460.169C81.3624 459.172 77.6571 457.163 74.6252 454.331C71.5932 451.5 69.3352 447.941 68.0655 443.991C66.7958 440.042 66.5566 435.834 67.3705 431.766C68.1845 427.698 70.0246 423.906 72.7162 420.749C75.4078 417.593 78.8615 415.176 82.7495 413.729C86.6375 412.283 90.8307 411.854 94.9311 412.483C99.0315 413.113 102.903 414.78 106.178 417.326C109.453 419.872 112.023 423.214 113.643 427.032C113.855 427.519 114.187 427.944 114.608 428.267C115.029 428.59 115.525 428.8 116.05 428.878C116.575 428.956 117.111 428.899 117.607 428.713C118.104 428.527 118.545 428.217 118.889 427.813L141.391 401.433C141.974 400.744 142.688 400.178 143.49 399.766C144.293 399.353 145.169 399.104 146.068 399.031C146.967 398.958 147.872 399.063 148.73 399.34C149.589 399.618 150.384 400.062 151.071 400.647L178.762 424.227C179.186 424.584 179.698 424.82 180.245 424.913C180.791 425.005 181.352 424.949 181.87 424.752C182.388 424.555 182.844 424.223 183.191 423.79C183.537 423.358 183.762 422.841 183.842 422.292C184.457 417.189 186.676 412.414 190.179 408.654C194.503 403.979 200.487 401.184 206.847 400.87C213.207 400.555 219.437 402.746 224.201 406.972C228.965 411.198 231.883 417.123 232.329 423.475C232.775 429.827 230.714 436.101 226.588 440.952C223.487 444.602 219.37 447.248 214.762 448.554C214.217 448.708 213.725 449.007 213.337 449.419C212.949 449.831 212.68 450.341 212.56 450.894C212.439 451.447 212.471 452.023 212.652 452.559C212.832 453.095 213.156 453.573 213.586 453.94L241.238 477.524C241.926 478.11 242.492 478.825 242.904 479.629C243.315 480.433 243.564 481.311 243.636 482.211C243.708 483.112 243.601 484.017 243.323 484.877C243.044 485.736 242.599 486.532 242.012 487.219L219.813 513.244C219.475 513.643 219.242 514.119 219.135 514.63C219.028 515.141 219.051 515.671 219.2 516.172C219.35 516.672 219.622 517.127 219.991 517.496C220.361 517.865 220.817 518.135 221.318 518.283C224.624 519.234 227.688 520.883 230.302 523.118C232.817 525.26 234.869 527.891 236.335 530.851C237.8 533.811 238.648 537.038 238.826 540.337C239.004 543.635 238.509 546.935 237.371 550.036C236.233 553.136 234.476 555.973 232.206 558.373Z" fill="#F5E9C6" stroke="black" stroke-width="5.2" stroke-miterlimit="10"/>
<path d="M90.6156 420.131C95.5984 420.077 100.448 421.739 104.351 424.837C101.183 426.663 97.2395 425.554 93.6113 425.085C90.5281 424.7 87.4026 424.827 84.3607 425.46C82.9493 425.762 77.3999 428.55 76.6651 426.513C75.3314 422.689 88.4811 420.161 90.6156 420.131Z" fill="white"/>
<path d="M200.196 410.245C204.571 407.864 209.632 407.057 214.53 407.96C212.605 411.072 208.59 411.924 205.173 413.222C202.263 414.318 199.556 415.894 197.166 417.884C196.066 418.799 192.476 423.863 190.868 422.408C187.847 419.689 198.329 411.291 200.196 410.245Z" fill="white"/>
<path d="M155.523 570.634C153.231 573.67 160.023 578.17 162.479 575.274L184.678 549.248C185.016 548.85 185.449 548.543 185.937 548.356C186.425 548.169 186.952 548.108 187.47 548.178C187.988 548.248 188.479 548.448 188.9 548.759C189.32 549.069 189.655 549.481 189.875 549.955C191.418 553.193 193.665 556.045 196.45 558.305C201.414 562.314 207.754 564.213 214.105 563.593C220.455 562.974 226.308 559.886 230.404 554.994C234.501 550.102 236.512 543.797 236.006 537.436C235.499 531.076 232.516 525.169 227.697 520.986C225.081 518.752 222.018 517.104 218.713 516.151C218.213 516.003 217.758 515.733 217.39 515.365C217.021 514.997 216.75 514.542 216.602 514.042C216.454 513.543 216.433 513.014 216.541 512.504C216.65 511.994 216.884 511.52 217.222 511.124L239.341 485.095C241.812 482.21 239.466 480.472 236.57 478.016L210.079 455.368C210.079 455.368 216.317 490.224 155.523 570.634Z" fill="#D3C095"/>
<path d="M117.664 3.79237C118.923 5.6603 120.242 7.46804 121.435 9.34379L123.106 12.2116L123.967 13.6358L124.742 15.1233C125.775 17.098 126.831 19.0433 127.687 21.0923L129.072 24.127L130.305 27.2197C133.469 35.5111 135.87 44.0736 137.48 52.8011L138.576 59.3096L139.424 65.8478C139.952 70.2599 140.335 74.6892 140.573 79.1226C141.065 88.014 141.119 96.9047 140.979 105.845C140.839 114.785 140.666 123.889 140.275 132.833L139.286 159.775C139.032 168.756 138.781 177.763 139.033 186.763C139.248 195.78 139.925 204.781 141.062 213.729C143.412 231.626 147.094 249.323 152.078 266.672C156.81 284.033 162.052 301.227 166.978 318.432C172.122 335.529 176.211 352.926 179.22 370.524C182.237 388.145 182.872 406.09 181.111 423.88L181.612 423.966C185.194 406.275 185.271 387.927 183.126 369.978C180.98 352.028 176.898 334.324 172.127 316.967C167.357 299.61 161.678 282.548 156.663 265.366C154.137 256.785 151.738 248.161 149.586 239.495C147.435 230.828 145.385 222.123 143.802 213.322C142.24 204.52 141.226 195.629 140.765 186.702C140.334 177.763 140.471 168.797 140.928 159.845C141.163 155.368 141.491 150.894 141.863 146.454L143.1 133.027C143.93 124.083 144.743 115.116 145.194 106.111C145.684 97.0748 145.634 88.017 145.045 78.9863C144.486 69.9216 143.236 60.9127 141.306 52.0382C139.417 43.1339 136.576 34.4582 132.834 26.1604L131.403 23.0781L129.718 20.0925C128.679 18.0654 127.429 16.1567 126.23 14.2416L125.386 12.842L124.432 11.4157L122.443 8.66558C121.097 6.84788 119.546 5.20081 118.103 3.46109L117.664 3.79237Z" fill="#1D1D1B"/>
<path d="M34.5759 46.6712C28.4381 52.2135 23.2545 58.7283 19.233 65.9544C15.2034 73.2351 12.3573 81.1102 10.8011 89.2849C9.24487 97.4548 8.65778 105.78 9.05198 114.087C9.2046 118.252 9.5966 122.308 9.98488 126.445C10.4168 130.63 11.2182 134.77 12.3798 138.814C13.4981 142.836 14.8704 146.762 16.3413 150.624C17.8121 154.485 19.4274 158.222 21.0491 162.012C24.24 169.598 27.8018 176.954 31.3028 184.357C34.8039 191.76 38.3787 199.114 41.9206 206.526C45.4625 213.937 48.6801 221.414 51.8648 228.947C55.0495 236.481 58.121 244.068 61.1271 251.663L70.006 274.504C72.9351 282.122 75.8773 289.738 78.61 297.379C81.3427 305.019 83.9685 312.766 86.5258 320.494C91.6871 335.911 96.0685 351.577 99.6533 367.434C103.3 383.325 105.323 399.546 105.693 415.845L106.2 415.865C106.634 411.829 106.815 407.677 106.894 403.565C106.973 399.452 106.866 395.335 106.614 391.222C106.141 382.992 105.201 374.796 103.798 366.673C100.95 350.45 96.8908 334.462 91.6536 318.845C89.1001 311.037 86.2271 303.333 83.2671 295.68C80.3072 288.026 77.2649 280.462 74.0216 272.882C70.7783 265.302 67.3951 257.885 63.9187 250.466L53.4125 228.231C49.9492 220.81 46.6137 213.348 43.3405 205.851C40.0673 198.355 37.0466 190.748 33.9866 183.146L25.0422 160.313C23.5515 156.507 21.9429 152.716 20.4915 148.906C19.04 145.095 17.598 141.364 16.4754 137.527C15.3087 133.72 14.4351 129.829 13.8623 125.888C13.3927 121.961 12.8982 117.824 12.6711 113.814C12.0855 105.796 12.4141 97.7376 13.6506 89.7941C14.8954 81.828 17.3181 74.0913 20.8392 66.838C24.4785 59.5665 29.2066 52.8933 34.8601 47.0489L34.5759 46.6712Z" fill="#1D1D1B"/>
<path d="M100.592 40.8242C97.3097 71.4243 96.9063 102.265 99.3873 132.941C99.6741 136.784 100.103 140.597 100.534 144.423L101.902 155.865L103.403 167.305C103.858 171.115 104.392 174.916 104.9 178.719L107.831 201.568C108.833 209.176 109.783 216.791 110.879 224.402C115.113 254.881 121.546 285.014 130.13 314.564C134.373 329.289 138.61 343.96 141.837 358.846C143.489 366.282 144.76 373.798 145.645 381.364C146.096 385.134 146.365 388.94 146.54 392.743C146.569 394.652 146.625 396.557 146.627 398.469L146.464 404.212L146.976 404.271C149.454 389.009 148.151 373.335 145.747 358.113C143.343 342.89 139.321 327.914 135.307 313.109L132.204 302.033L129.182 290.974L127.645 285.448L126.237 279.893L123.435 268.781C121.733 261.322 119.915 253.891 118.317 246.407L117.063 240.806C116.641 238.945 116.218 237.07 115.834 235.19L113.48 223.945C110.542 208.919 107.925 193.801 106.405 178.539C104.886 163.277 104.08 147.983 103.579 132.678C103.077 117.374 102.235 102.111 101.748 86.8182L101.53 75.3311C101.462 73.4271 101.444 71.5037 101.442 69.5918L101.366 63.8509C101.333 60.0172 101.193 56.1829 101.227 52.3544C101.26 48.526 101.214 44.6938 101.177 40.8339L100.592 40.8242Z" fill="#1D1D1B"/>
</svg>
