<svg width="198" height="455" viewBox="0 0 198 455" fill="none" xmlns="http://www.w3.org/2000/svg">
<g clip-path="url(#clip0_10_146)">
<path d="M19.4186 427.27C22.6499 430.632 27.0257 432.659 31.6798 432.948C36.334 433.238 40.9273 431.77 44.5506 428.835C46.6548 427.108 48.3464 424.932 49.5014 422.467C49.6693 422.108 49.9248 421.796 50.2445 421.561C50.5642 421.325 50.9378 421.174 51.3311 421.121C51.7244 421.068 52.1248 421.114 52.4955 421.256C52.8662 421.398 53.1954 421.63 53.4528 421.932L70.279 441.669C70.7228 442.191 71.2652 442.62 71.8751 442.932C72.485 443.245 73.1505 443.433 73.8334 443.488C74.5163 443.542 75.2033 443.461 75.855 443.25C76.5067 443.039 77.1103 442.701 77.6313 442.256L98.1919 424.773C98.5184 424.499 98.7643 424.141 98.9035 423.737C99.0427 423.334 99.0701 422.901 98.9826 422.483C98.8951 422.066 98.696 421.68 98.4066 421.366C98.1172 421.053 97.7483 420.824 97.339 420.703C93.8706 419.704 90.7456 417.766 88.309 415.103C85.8723 412.44 84.2187 409.156 83.5306 405.613C82.8426 402.07 83.1468 398.405 84.4098 395.024C85.6727 391.643 87.8453 388.676 90.6877 386.451C94.5493 383.483 99.3725 382.047 104.229 382.421C109.086 382.796 113.632 384.953 116.993 388.478C119.856 391.514 121.67 395.388 122.168 399.531C122.225 399.954 122.395 400.355 122.661 400.69C122.928 401.024 123.279 401.281 123.679 401.432C124.079 401.583 124.513 401.623 124.934 401.548C125.355 401.472 125.748 401.285 126.07 401.004L146.032 383.983C146.553 383.54 146.981 382.998 147.292 382.388C147.603 381.778 147.791 381.113 147.844 380.431C147.898 379.749 147.816 379.063 147.604 378.412C147.392 377.762 147.053 377.159 146.608 376.64L129.553 356.624C129.289 356.319 129.108 355.951 129.027 355.557C128.946 355.162 128.967 354.753 129.089 354.368C129.21 353.984 129.428 353.637 129.722 353.361C130.016 353.085 130.375 352.889 130.767 352.791C133.821 352.035 136.631 350.511 138.93 348.364C141.23 346.216 142.942 343.517 143.905 340.522C144.868 337.526 145.05 334.335 144.432 331.25C143.815 328.165 142.419 325.289 140.378 322.894C138.337 320.5 135.717 318.668 132.769 317.571C129.82 316.473 126.64 316.148 123.53 316.625C120.42 317.103 117.484 318.367 115 320.298C112.516 322.23 110.567 324.763 109.338 327.66C109.178 328.029 108.926 328.351 108.607 328.596C108.288 328.841 107.911 329 107.513 329.06C107.115 329.119 106.709 329.076 106.332 328.934C105.955 328.793 105.621 328.558 105.36 328.252L88.2941 308.244C87.8518 307.722 87.3108 307.293 86.7022 306.98C86.0935 306.668 85.4291 306.478 84.7471 306.423C84.0652 306.368 83.3789 306.447 82.7279 306.658C82.0768 306.868 81.4736 307.205 80.9529 307.649L59.9516 325.532C59.6297 325.803 59.2414 325.982 58.8269 326.052C58.4124 326.122 57.9868 326.08 57.5939 325.93C57.2011 325.781 56.8554 325.529 56.5925 325.201C56.3296 324.873 56.1591 324.481 56.0986 324.065C55.6326 320.195 53.9497 316.573 51.2924 313.721C48.0132 310.175 43.475 308.056 38.6513 307.818C33.8276 307.579 29.1026 309.241 25.4897 312.446C21.8768 315.651 19.6638 320.144 19.3254 324.962C18.987 329.779 20.5502 334.538 23.6796 338.216C26.0315 340.985 29.1534 342.992 32.6486 343.982C33.0617 344.099 33.4352 344.326 33.7294 344.638C34.0235 344.951 34.2273 345.338 34.3188 345.757C34.4103 346.176 34.3862 346.613 34.2491 347.02C34.1119 347.426 33.8668 347.788 33.54 348.067L12.5685 365.954C12.0466 366.397 11.6174 366.94 11.3054 367.55C10.9933 368.16 10.8047 368.825 10.7501 369.508C10.6956 370.191 10.7763 370.878 10.9877 371.53C11.199 372.181 11.5368 372.785 11.9817 373.306L28.8178 393.044C29.0739 393.346 29.2505 393.707 29.3317 394.095C29.4129 394.483 29.396 394.885 29.2826 395.264C29.1692 395.644 28.9629 395.989 28.6824 396.269C28.4018 396.548 28.0559 396.753 27.6761 396.865C25.1689 397.587 22.8455 398.837 20.8626 400.533C18.9554 402.157 17.3988 404.152 16.2874 406.397C15.1761 408.642 14.5333 411.09 14.3982 413.591C14.2631 416.093 14.6385 418.595 15.5016 420.947C16.3647 423.299 17.6974 425.45 19.4186 427.27Z" fill="#F5E9C6" stroke="black" stroke-width="5.2" stroke-miterlimit="10"/>
<path d="M126.803 322.426C123.024 322.385 119.346 323.645 116.386 325.994C118.788 327.379 121.779 326.538 124.531 326.183C126.869 325.891 129.24 325.987 131.547 326.467C132.617 326.696 136.826 328.811 137.383 327.266C138.395 324.365 128.422 322.448 126.803 322.426Z" fill="white"/>
<path d="M43.6955 314.928C40.3772 313.122 36.5395 312.51 32.8243 313.195C34.2845 315.555 37.3293 316.201 39.9208 317.186C42.1282 318.017 44.1809 319.212 45.994 320.722C46.8275 321.415 49.5509 325.256 50.7704 324.153C53.0615 322.09 45.1113 315.721 43.6955 314.928Z" fill="white"/>
<path d="M77.5759 436.569C79.3149 438.872 74.1634 442.285 72.3009 440.088L55.4648 420.35C55.2084 420.048 54.88 419.815 54.5099 419.673C54.1399 419.531 53.74 419.485 53.3473 419.538C52.9546 419.592 52.5816 419.743 52.2628 419.979C51.9441 420.214 51.6898 420.526 51.5233 420.886C50.3527 423.342 48.649 425.505 46.5364 427.219C42.7715 430.259 37.9634 431.699 33.1472 431.23C28.3309 430.76 23.8917 428.418 20.7851 424.708C17.6785 420.997 16.153 416.216 16.5371 411.392C16.9211 406.568 19.184 402.088 22.8385 398.916C24.8221 397.221 27.1452 395.971 29.6519 395.249C30.031 395.137 30.376 394.932 30.6557 394.652C30.9353 394.373 31.1407 394.028 31.253 393.649C31.3654 393.27 31.3812 392.869 31.299 392.483C31.2168 392.096 31.0393 391.736 30.7825 391.436L14.0072 371.695C12.1336 369.507 13.9127 368.189 16.1093 366.327L36.2002 349.15C36.2002 349.15 31.4688 375.585 77.5759 436.569Z" fill="#D3C095"/>
<path d="M106.289 6.66827C105.334 8.08494 104.334 9.45595 103.429 10.8786L102.162 13.0535L101.509 14.1337L100.921 15.2618C100.138 16.7594 99.3369 18.2348 98.6878 19.7888L97.6372 22.0903L96.7022 24.4359C94.3025 30.7242 92.4811 37.2182 91.2607 43.8372L90.4289 48.7733L89.7857 53.7321C89.3857 57.0782 89.0949 60.4375 88.9145 63.7998C88.5414 70.5432 88.5008 77.286 88.6067 84.0666C88.7125 90.8471 88.8439 97.7515 89.1408 104.535L89.8906 124.968C90.0835 131.779 90.274 138.61 90.0825 145.436C89.9195 152.275 89.406 159.101 88.5439 165.888C86.7616 179.461 83.9688 192.882 80.1887 206.04C76.6004 219.207 72.6244 232.247 68.889 245.296C64.9874 258.262 61.8865 271.456 59.6038 284.803C57.3164 298.167 56.8342 311.777 58.1703 325.269L57.7899 325.334C55.0733 311.917 55.0147 298.002 56.6421 284.389C58.2695 270.776 61.3652 257.348 64.9833 244.184C68.6015 231.021 72.908 218.081 76.7116 205.05C78.6277 198.541 80.4469 192.001 82.0787 185.428C83.7104 178.856 85.2651 172.253 86.4659 165.579C87.6501 158.903 88.4191 152.16 88.7687 145.389C89.0957 138.61 88.9922 131.81 88.6456 125.021C88.4673 121.626 88.2184 118.232 87.9361 114.865L86.9983 104.681C86.3689 97.8987 85.7519 91.0974 85.4101 84.2685C85.0384 77.415 85.0761 70.5455 85.5228 63.6965C85.9468 56.8216 86.8949 49.9892 88.3589 43.2586C89.7917 36.5054 91.9458 29.9257 94.784 23.6325L95.8691 21.2948L97.1469 19.0305C97.935 17.4932 98.8835 16.0455 99.7924 14.5931L100.433 13.5317L101.156 12.4499L102.665 10.3642C103.686 8.98562 104.862 7.73645 105.956 6.41702L106.289 6.66827Z" fill="#1D1D1B"/>
<path d="M169.304 39.1882C173.959 43.3916 177.891 48.3325 180.941 53.8129C183.997 59.3347 186.155 65.3073 187.336 71.507C188.516 77.7032 188.961 84.017 188.662 90.3175C188.546 93.4761 188.249 96.5526 187.955 99.6898C187.627 102.864 187.019 106.003 186.138 109.07C185.29 112.121 184.249 115.099 183.134 118.027C182.018 120.955 180.793 123.79 179.563 126.664C177.143 132.418 174.442 137.997 171.787 143.611C169.131 149.226 166.42 154.803 163.734 160.424C161.048 166.045 158.607 171.715 156.192 177.429C153.777 183.143 151.447 188.897 149.168 194.657L142.434 211.98C140.212 217.757 137.981 223.533 135.908 229.328C133.836 235.123 131.844 240.998 129.905 246.86C125.99 258.552 122.667 270.433 119.949 282.46C117.183 294.512 115.648 306.813 115.368 319.175L114.984 319.19C114.655 316.129 114.517 312.981 114.457 309.861C114.397 306.742 114.478 303.62 114.67 300.501C115.028 294.259 115.741 288.043 116.805 281.882C118.965 269.578 122.044 257.453 126.016 245.609C127.952 239.687 130.131 233.845 132.376 228.04C134.621 222.235 136.928 216.499 139.388 210.75C141.848 205.001 144.414 199.376 147.05 193.749L155.018 176.886C157.645 171.258 160.175 165.598 162.657 159.913C165.14 154.227 167.431 148.458 169.751 142.693L176.535 125.376C177.665 122.49 178.885 119.614 179.986 116.724C181.087 113.835 182.181 111.004 183.032 108.095C183.917 105.207 184.579 102.256 185.014 99.2677C185.37 96.2889 185.745 93.1513 185.917 90.1102C186.361 84.0294 186.112 77.9177 185.174 71.8932C184.23 65.8516 182.393 59.984 179.722 54.483C176.962 48.9682 173.376 43.9071 169.089 39.4747L169.304 39.1882Z" fill="#1D1D1B"/>
<path d="M119.237 34.7538C121.726 57.9614 122.032 81.3514 120.15 104.616C119.933 107.531 119.607 110.423 119.281 113.324L118.243 122.003L117.105 130.679C116.76 133.568 116.355 136.451 115.97 139.335L113.747 156.664C112.987 162.435 112.266 168.21 111.435 173.982C108.224 197.098 103.345 219.951 96.8348 242.362C93.6165 253.529 90.403 264.657 87.9556 275.946C86.7027 281.586 85.7389 287.286 85.068 293.024C84.7262 295.883 84.5221 298.77 84.3888 301.654C84.3668 303.102 84.325 304.547 84.3228 305.997L84.4467 310.353L84.0587 310.397C82.1794 298.822 83.1673 286.935 84.9907 275.39C86.814 263.845 89.8638 252.487 92.9081 241.259L95.2618 232.858L97.5536 224.471L98.7194 220.28L99.787 216.067L101.912 207.64C103.203 201.983 104.582 196.347 105.794 190.67L106.745 186.423C107.065 185.011 107.386 183.589 107.677 182.164L109.462 173.635C111.691 162.239 113.676 150.774 114.828 139.199C115.98 127.624 116.591 116.024 116.972 104.417C117.352 92.8105 117.991 81.2345 118.36 69.6363L118.525 60.9243C118.577 59.4803 118.59 58.0215 118.592 56.5715L118.65 52.2175C118.675 49.31 118.781 46.402 118.755 43.4984C118.73 40.5949 118.765 37.6885 118.793 34.7611L119.237 34.7538Z" fill="#1D1D1B"/>
</g>
<defs>
<clipPath id="clip0_10_146">
<rect width="146.56" height="440.42" fill="white" transform="translate(52.2786) rotate(6.81718)"/>
</clipPath>
</defs>
</svg>
