<svg width="339" height="154" viewBox="0 0 339 154" fill="none" xmlns="http://www.w3.org/2000/svg">
<path d="M2.96667 56.9656C3.48277 45.1868 8.60755 35.5645 20.3873 35.2836C23.7384 35.1971 27.0667 35.8595 30.1298 37.2226C30.5766 37.4163 31.0647 37.495 31.5497 37.4514C32.0347 37.4079 32.5011 37.2434 32.9063 36.9731C33.3114 36.7028 33.6425 36.3353 33.8692 35.9041C34.0959 35.4728 34.2111 34.9916 34.2042 34.5044L33.9779 10.3941C33.9658 8.69741 34.6259 7.06504 35.8138 5.85428C37.0016 4.64352 38.6205 3.95301 40.3159 3.93388L142.576 3.69831C143.111 3.67806 143.642 3.80583 144.109 4.0676C144.577 4.32937 144.964 4.71502 145.226 5.18219C145.489 5.64936 145.619 6.17999 145.6 6.71581C145.581 7.25163 145.415 7.77193 145.12 8.21956C142.696 11.9424 141.347 16.2636 141.223 20.7056C141.099 25.1476 142.204 29.5374 144.417 33.3899C146.63 37.2425 149.865 40.4078 153.763 42.536C157.661 44.6643 162.072 45.6726 166.507 45.4496C172.489 45.1036 178.132 42.5564 182.351 38.2979C186.57 34.0395 189.066 28.3705 189.36 22.3813C189.578 17.251 188.147 12.186 185.276 7.92961C184.987 7.48702 184.822 6.9741 184.801 6.44543C184.779 5.91676 184.901 5.39211 185.154 4.92732C185.406 4.46252 185.78 4.07498 186.235 3.80591C186.691 3.53684 187.21 3.39633 187.739 3.3993L292.208 3.17279C293.902 3.16548 295.529 3.82791 296.737 5.01583C297.944 6.20374 298.634 7.82093 298.655 9.51522L298.881 34.0332C298.882 34.5299 299.01 35.0182 299.252 35.4516C299.495 35.8849 299.844 36.2488 300.268 36.5086C300.691 36.7684 301.173 36.9155 301.669 36.9358C302.165 36.9561 302.658 36.849 303.101 36.6246C306.553 34.8682 310.396 34.024 314.265 34.1722C318.135 34.3203 321.903 35.4558 325.21 37.4709C328.518 39.486 331.256 42.3137 333.164 45.6856C335.073 49.0575 336.088 52.8616 336.114 56.7367C336.14 60.6117 335.175 64.429 333.312 67.8262C331.449 71.2233 328.749 74.0874 325.469 76.1466C322.188 78.2058 318.436 79.3916 314.569 79.5914C310.701 79.7913 306.847 78.9986 303.372 77.2886C302.926 77.0723 302.433 76.9736 301.938 77.0021C301.443 77.0305 300.964 77.1851 300.545 77.4511C300.127 77.7171 299.784 78.0858 299.548 78.522C299.312 78.9582 299.192 79.4475 299.198 79.9434L299.416 104.461C299.43 106.16 298.771 107.794 297.583 109.007C296.395 110.22 294.775 110.912 293.077 110.931L186.933 111.166C186.407 111.168 185.891 111.313 185.441 111.585C184.99 111.856 184.621 112.245 184.373 112.709C184.126 113.174 184.008 113.697 184.033 114.223C184.058 114.749 184.225 115.258 184.516 115.697C187.198 119.658 188.558 124.369 188.4 129.152C188.287 132.655 187.366 136.084 185.708 139.172C184.051 142.259 181.702 144.922 178.846 146.95C175.99 148.978 172.703 150.318 169.243 150.865C165.784 151.411 162.245 151.149 158.903 150.099C155.561 149.05 152.507 147.241 149.98 144.814C147.453 142.387 145.521 139.408 144.336 136.11C143.15 132.812 142.743 129.285 143.146 125.803C143.549 122.321 144.752 118.98 146.659 116.041C146.952 115.599 147.12 115.085 147.143 114.556C147.166 114.026 147.044 113.5 146.791 113.034C146.538 112.568 146.162 112.18 145.705 111.911C145.248 111.643 144.727 111.504 144.197 111.511L41.2033 111.746C39.5069 111.758 37.8747 111.098 36.6633 109.909C35.4519 108.721 34.7599 107.101 34.7384 105.404L34.5211 81.3206C34.5184 80.8332 34.3937 80.3542 34.1584 79.9274C33.9231 79.5006 33.5847 79.1396 33.1741 78.8774C32.7634 78.6152 32.2937 78.4601 31.8078 78.4263C31.3219 78.3925 30.8353 78.4811 30.3923 78.6839C27.4683 80.023 24.2911 80.7182 21.0754 80.7226C8.16388 80.8132 2.38719 70.0582 2.96667 56.9656Z" fill="#F5E9C6" stroke="black" stroke-width="5.2" stroke-miterlimit="10"/>
<path d="M296.373 79.2548L296.6 103.718C296.6 107.261 296.907 108.584 293.376 108.611L187.223 108.847C184.914 108.847 183.511 113.024 184.805 114.945C187.495 118.903 188.855 123.616 188.69 128.4C188.465 134.323 185.936 139.924 181.643 144.008C177.349 148.092 171.631 150.335 165.708 150.259C159.785 150.184 154.126 147.795 149.938 143.603C145.75 139.411 143.365 133.747 143.291 127.82C143.251 123.35 144.54 118.969 146.994 115.234C148.271 113.277 146.868 109.128 144.532 109.137L41.5382 109.372C37.9889 109.372 36.667 108.113 36.6398 104.57L36.4678 93.0541C36.4678 93.0541 152.961 99.0341 296.373 79.2548Z" fill="#D3C095"/>
<path d="M62.7255 11.871C57.2023 12.6955 51.3894 13.9549 47.3331 17.8057C41.7465 23.1333 41.1309 31.7046 40.9226 39.4333C42.4618 41.0099 45.2687 40.3394 46.8079 38.781C48.3472 37.2225 49.0353 35.0208 50.0132 33.0456C54.2416 24.4833 64.0203 19.9802 73.4821 18.7027C81.4771 17.6244 89.5174 18.4218 97.5395 18.4399C101.315 18.4399 113.738 18.757 108.459 13.0035C104.756 8.95345 93.5918 10.077 88.9107 10.0407C80.1483 9.97544 71.3938 10.5873 62.7255 11.871Z" fill="white"/>
<path d="M92.85 72.4954C91.3833 71.9954 90.05 71.4954 88.85 70.9954C87.65 70.462 86.6167 69.8287 85.75 69.0954C84.8833 68.362 84.2 67.4954 83.7 66.4954C83.2333 65.462 83 64.212 83 62.7454C83 59.912 84.0833 57.6454 86.25 55.9454C88.45 54.2454 91.5167 53.3954 95.45 53.3954C96.8833 53.3954 98.2167 53.4954 99.45 53.6954C100.683 53.8954 101.733 54.212 102.6 54.6454C103.5 55.0454 104.2 55.5787 104.7 56.2454C105.2 56.8787 105.45 57.6287 105.45 58.4954C105.45 59.362 105.25 60.112 104.85 60.7454C104.45 61.3454 103.967 61.862 103.4 62.2954C102.667 61.8287 101.683 61.4287 100.45 61.0954C99.2167 60.7287 97.8667 60.5454 96.4 60.5454C94.9 60.5454 93.8 60.762 93.1 61.1954C92.4 61.5954 92.05 62.112 92.05 62.7454C92.05 63.2454 92.2667 63.662 92.7 63.9954C93.1333 64.2954 93.7833 64.5787 94.65 64.8454L97.3 65.6954C100.433 66.6954 102.833 67.9787 104.5 69.5454C106.2 71.0787 107.05 73.1787 107.05 75.8454C107.05 78.6787 105.933 80.9787 103.7 82.7454C101.467 84.4787 98.1833 85.3454 93.85 85.3454C92.3167 85.3454 90.8833 85.212 89.55 84.9454C88.25 84.712 87.1 84.362 86.1 83.8954C85.1333 83.3954 84.3667 82.7954 83.8 82.0954C83.2667 81.362 83 80.5287 83 79.5954C83 78.6287 83.2833 77.812 83.85 77.1454C84.4167 76.4454 85.0333 75.912 85.7 75.5454C86.6333 76.2787 87.7667 76.912 89.1 77.4454C90.4667 77.9787 91.95 78.2454 93.55 78.2454C95.1833 78.2454 96.3333 77.9954 97 77.4954C97.6667 76.9954 98 76.412 98 75.7454C98 75.0787 97.7333 74.5787 97.2 74.2454C96.6667 73.8787 95.9167 73.5287 94.95 73.1954L92.85 72.4954ZM138.639 73.3454C138.639 75.1454 138.322 76.7954 137.689 78.2954C137.089 79.762 136.206 81.0287 135.039 82.0954C133.872 83.1287 132.456 83.9287 130.789 84.4954C129.122 85.062 127.239 85.3454 125.139 85.3454C123.039 85.3454 121.156 85.062 119.489 84.4954C117.822 83.9287 116.406 83.1287 115.239 82.0954C114.072 81.0287 113.172 79.762 112.539 78.2954C111.939 76.7954 111.639 75.1454 111.639 73.3454V54.2454C112.006 54.1787 112.589 54.0954 113.389 53.9954C114.189 53.862 114.956 53.7954 115.689 53.7954C116.456 53.7954 117.122 53.862 117.689 53.9954C118.289 54.0954 118.789 54.2954 119.189 54.5954C119.589 54.8954 119.889 55.312 120.089 55.8454C120.289 56.3787 120.389 57.0787 120.389 57.9454V73.1954C120.389 74.7954 120.822 76.0454 121.689 76.9454C122.589 77.8454 123.739 78.2954 125.139 78.2954C126.572 78.2954 127.722 77.8454 128.589 76.9454C129.456 76.0454 129.889 74.7954 129.889 73.1954V54.2454C130.256 54.1787 130.839 54.0954 131.639 53.9954C132.439 53.862 133.206 53.7954 133.939 53.7954C134.706 53.7954 135.372 53.862 135.939 53.9954C136.539 54.0954 137.039 54.2954 137.439 54.5954C137.839 54.8954 138.139 55.312 138.339 55.8454C138.539 56.3787 138.639 57.0787 138.639 57.9454V73.3454ZM153.492 78.2954C153.959 78.4287 154.559 78.5287 155.292 78.5954C156.026 78.6287 156.726 78.6454 157.392 78.6454C158.726 78.6454 159.826 78.3787 160.692 77.8454C161.592 77.2787 162.042 76.412 162.042 75.2454C162.042 74.1454 161.676 73.362 160.942 72.8954C160.209 72.4287 159.092 72.1954 157.592 72.1954H153.492V78.2954ZM153.492 66.0954H157.142C158.576 66.0954 159.609 65.8287 160.242 65.2954C160.909 64.762 161.242 63.9787 161.242 62.9454C161.242 62.0454 160.859 61.3287 160.092 60.7954C159.359 60.262 158.242 59.9954 156.742 59.9954C156.242 59.9954 155.659 60.012 154.992 60.0454C154.359 60.0787 153.859 60.1287 153.492 60.1954V66.0954ZM156.742 85.3454C156.176 85.3454 155.509 85.3287 154.742 85.2954C153.976 85.262 153.176 85.1954 152.342 85.0954C151.542 84.9954 150.742 84.862 149.942 84.6954C149.142 84.562 148.409 84.362 147.742 84.0954C145.909 83.3954 144.992 82.1787 144.992 80.4454V57.0954C144.992 56.3954 145.176 55.862 145.542 55.4954C145.942 55.0954 146.476 54.7787 147.142 54.5454C148.276 54.1454 149.692 53.862 151.392 53.6954C153.092 53.4954 154.842 53.3954 156.642 53.3954C160.909 53.3954 164.192 54.112 166.492 55.5454C168.792 56.9787 169.942 59.1954 169.942 62.1954C169.942 63.6954 169.509 64.9954 168.642 66.0954C167.776 67.162 166.609 67.9454 165.142 68.4454C166.809 68.912 168.192 69.762 169.292 70.9954C170.426 72.2287 170.992 73.7787 170.992 75.6454C170.992 78.9454 169.759 81.3954 167.292 82.9954C164.859 84.562 161.342 85.3454 156.742 85.3454ZM196.899 77.0954C196.466 77.462 195.899 77.762 195.199 77.9954C194.533 78.1954 193.749 78.2954 192.849 78.2954C191.649 78.2954 190.649 78.1454 189.849 77.8454C189.083 77.5454 188.583 77.0287 188.349 76.2954C187.416 73.362 186.649 70.9954 186.049 69.1954C185.449 67.362 184.983 65.762 184.649 64.3954H184.399C184.299 66.362 184.216 68.162 184.149 69.7954C184.116 71.3954 184.083 72.962 184.049 74.4954C184.049 76.0287 184.016 77.5787 183.949 79.1454C183.916 80.712 183.849 82.4454 183.749 84.3454C183.316 84.512 182.749 84.6454 182.049 84.7454C181.349 84.8787 180.649 84.9454 179.949 84.9454C178.483 84.9454 177.333 84.712 176.499 84.2454C175.699 83.7787 175.299 82.9287 175.299 81.6954L176.749 56.1954C177.016 55.762 177.599 55.2954 178.499 54.7954C179.399 54.2954 180.666 54.0454 182.299 54.0454C184.066 54.0454 185.449 54.3287 186.449 54.8954C187.449 55.4287 188.183 56.312 188.649 57.5454C188.949 58.3454 189.266 59.262 189.599 60.2954C189.966 61.3287 190.316 62.3954 190.649 63.4954C191.016 64.5954 191.366 65.6954 191.699 66.7954C192.033 67.862 192.333 68.8287 192.599 69.6954H192.849C193.649 66.8954 194.449 64.1954 195.249 61.5954C196.049 58.962 196.783 56.762 197.449 54.9954C197.949 54.7287 198.583 54.512 199.349 54.3454C200.149 54.1454 201.033 54.0454 201.999 54.0454C203.633 54.0454 204.966 54.2954 205.999 54.7954C207.033 55.262 207.633 55.9454 207.799 56.8454C207.933 57.512 208.066 58.5454 208.199 59.9454C208.366 61.312 208.533 62.862 208.699 64.5954C208.866 66.3287 209.033 68.162 209.199 70.0954C209.366 72.0287 209.516 73.8954 209.649 75.6954C209.816 77.462 209.949 79.0954 210.049 80.5954C210.149 82.062 210.216 83.1954 210.249 83.9954C209.683 84.3287 209.083 84.562 208.449 84.6954C207.849 84.862 207.066 84.9454 206.099 84.9454C204.833 84.9454 203.766 84.7287 202.899 84.2954C202.033 83.862 201.566 83.012 201.499 81.7454C201.299 78.112 201.166 74.8454 201.099 71.9454C201.066 69.0454 200.999 66.612 200.899 64.6454H200.649C200.316 65.9454 199.833 67.5787 199.199 69.5454C198.566 71.512 197.799 74.0287 196.899 77.0954ZM224.543 84.3454C224.176 84.4454 223.593 84.5454 222.793 84.6454C222.026 84.7454 221.26 84.7954 220.493 84.7954C219.726 84.7954 219.043 84.7287 218.443 84.5954C217.876 84.4954 217.393 84.2954 216.993 83.9954C216.593 83.6954 216.293 83.2787 216.093 82.7454C215.893 82.212 215.793 81.512 215.793 80.6454V54.2454C216.16 54.1787 216.743 54.0954 217.543 53.9954C218.343 53.862 219.11 53.7954 219.843 53.7954C220.61 53.7954 221.276 53.862 221.843 53.9954C222.443 54.0954 222.943 54.2954 223.343 54.5954C223.743 54.8954 224.043 55.312 224.243 55.8454C224.443 56.3787 224.543 57.0787 224.543 57.9454V84.3454ZM229.627 61.2454C229.394 60.8787 229.177 60.3787 228.977 59.7454C228.777 59.112 228.677 58.4454 228.677 57.7454C228.677 56.4454 228.961 55.512 229.527 54.9454C230.127 54.3787 230.894 54.0954 231.827 54.0954H253.627C253.861 54.462 254.077 54.962 254.277 55.5954C254.477 56.2287 254.577 56.8954 254.577 57.5954C254.577 58.8954 254.277 59.8287 253.677 60.3954C253.111 60.962 252.361 61.2454 251.427 61.2454H245.877V84.3454C245.511 84.4454 244.927 84.5454 244.127 84.6454C243.361 84.7454 242.594 84.7954 241.827 84.7954C241.061 84.7954 240.377 84.7287 239.777 84.5954C239.211 84.4954 238.727 84.2954 238.327 83.9954C237.927 83.6954 237.627 83.2787 237.427 82.7454C237.227 82.212 237.127 81.512 237.127 80.6454V61.2454H229.627Z" fill="#7D142E"/>
</svg>
